<svg width="80" height="76" viewBox="0 0 80 76" fill="none" xmlns="http://www.w3.org/2000/svg">
<path d="M56.4794 28.7798L56.9139 28.9339C56.9764 28.9561 56.977 29.0431 56.915 29.0662L56.4522 29.2385C56.2748 29.3046 56.1347 29.4431 56.0678 29.6185L55.892 30.0802C55.8687 30.1411 55.7816 30.1411 55.7586 30.0802L55.5827 29.6185C55.5159 29.4431 55.3758 29.3047 55.1984 29.2385L54.738 29.0671C54.6757 29.0439 54.6768 28.9563 54.7397 28.9347L55.1834 28.7815C55.3696 28.7172 55.517 28.5739 55.5849 28.3908L55.7609 27.9161C55.7833 27.8553 55.8701 27.8542 55.8941 27.9146L56.0892 28.4051C56.1583 28.58 56.3006 28.7164 56.4794 28.7798Z" fill="#1E1A19"/>
<path d="M76.9634 40.2041L77.4382 40.3726C77.5064 40.3968 77.5072 40.492 77.4393 40.5173L76.9334 40.7055C76.7396 40.7778 76.5865 40.929 76.5134 41.1206L76.3212 41.6253C76.2958 41.6917 76.2008 41.6917 76.1754 41.6253L75.9832 41.1206C75.9101 40.929 75.7572 40.7776 75.5633 40.7055L75.0602 40.5183C74.992 40.4929 74.9933 40.3973 75.062 40.3735L75.547 40.2062C75.7506 40.136 75.9115 39.9793 75.9857 39.7793L76.178 39.2607C76.2026 39.1942 76.2974 39.1931 76.3237 39.259L76.5369 39.7951C76.6126 39.9857 76.7682 40.1349 76.9634 40.2041Z" fill="#1E1A19"/>
<path d="M21.5256 21.1099L22.0004 21.2783C22.0686 21.3025 22.0693 21.3977 22.0015 21.423L21.4956 21.6112C21.3017 21.6835 21.1486 21.8347 21.0756 22.0265L20.8834 22.5311C20.858 22.5976 20.7629 22.5976 20.7375 22.5311L20.5454 22.0265C20.4723 21.8348 20.3193 21.6835 20.1253 21.6112L19.6222 21.424C19.5541 21.3986 19.5553 21.303 19.6241 21.2792L20.109 21.1119C20.3126 21.0417 20.4735 20.885 20.5477 20.685L20.74 20.1664C20.7646 20.0999 20.8594 20.0987 20.8857 20.1647L21.0989 20.7008C21.1748 20.8915 21.3302 21.0407 21.5256 21.1099Z" fill="#1E1A19"/>
<path d="M67.4278 53.5248C67.4278 53.9262 64.8303 54.2515 61.6262 54.2515C58.4221 54.2515 55.8247 53.9262 55.8247 53.5248C55.8247 53.1235 58.4221 52.798 61.6262 52.798C64.8303 52.7981 67.4278 53.1235 67.4278 53.5248Z" fill="#1E1A19"/>
<path d="M68.3179 39.4572C68.269 39.806 68.2101 40.1549 68.1414 40.4988C68.1365 40.5229 68.1317 40.5473 68.1268 40.5715C68.0484 40.9517 67.9602 41.3321 67.8597 41.7074V41.7099C67.8548 41.7341 67.8499 41.756 67.8426 41.7801C67.6956 42.3373 67.5314 42.8919 67.3551 43.4418C67.3477 43.4659 67.3403 43.4927 67.3331 43.5169C67.142 44.1152 66.9386 44.7111 66.7376 45.3046C66.7278 45.3312 66.7204 45.3555 66.7107 45.3822C66.5955 45.7238 66.4804 46.0677 66.3651 46.4093C66.3578 46.4359 66.3481 46.4625 66.3382 46.4893V46.4917C66.3138 46.5741 66.2867 46.6515 66.2597 46.734C66.1176 47.17 65.9803 47.6084 65.8505 48.0468C65.8406 48.0735 65.8308 48.0978 65.8259 48.1244C65.6568 48.6791 65.4975 49.2362 65.3457 49.7982C65.3408 49.8199 65.3334 49.8418 65.3286 49.8636C65.2403 50.1882 65.1546 50.5152 65.0738 50.8422L65.0567 50.91C64.9856 51.1862 64.9195 51.4598 64.8558 51.736V51.7384C64.8484 51.7602 64.841 51.7845 64.8386 51.8087C64.6475 52.6057 64.4759 53.4051 64.3191 54.2092C64.2702 54.4659 64.2187 54.7324 64.0666 54.9481C63.9319 55.1443 63.7235 55.2824 63.5129 55.3986C62.8758 55.757 62.1603 55.9774 61.4277 56.0428C60.3814 56.1348 59.5629 55.7327 59.4575 54.6331C59.3669 53.6738 59.0018 52.9398 58.6268 52.0437C58.6194 52.0291 58.6145 52.0122 58.6073 51.9976C58.6024 51.983 58.595 51.971 58.5901 51.9564C58.4627 51.6463 58.3376 51.3339 58.2176 51.019L58.1906 50.9463V50.9439C57.6051 49.4058 57.1321 47.8265 56.8258 46.2132L56.8135 46.1356C56.767 45.8862 56.7228 45.6366 56.6861 45.3847C56.6739 45.3047 56.6616 45.2225 56.6518 45.1425C56.6468 45.1159 56.6444 45.0892 56.6394 45.0649C56.5634 44.5053 56.5071 43.9409 56.4777 43.3765C56.4753 43.3523 56.4753 43.3306 56.4753 43.3062C56.4459 42.783 56.441 42.2598 56.458 41.7366L56.4605 41.6688C56.4605 41.618 56.463 41.5695 56.4654 41.5187C56.4777 41.2474 56.4997 40.9689 56.5537 40.7C56.5562 40.6782 56.561 40.6563 56.5659 40.6346C56.615 40.4118 56.6859 40.1961 56.7913 40.0023C56.8036 39.9782 56.8158 39.9538 56.833 39.9321C56.8992 39.8181 56.9801 39.7117 57.0781 39.6148C57.1566 39.5348 57.2595 39.4598 57.3721 39.4767C57.4627 39.4889 57.5338 39.5543 57.5951 39.6197C57.6417 39.668 57.6881 39.719 57.7298 39.7698C57.7471 39.7867 57.7617 39.8037 57.774 39.8207C57.9945 40.0775 58.1856 40.3537 58.3522 40.6443C58.3644 40.6636 58.3742 40.6831 58.3865 40.7024C58.7761 41.3952 59.0432 42.1654 59.254 42.9333C59.6215 44.2752 59.8445 45.6535 60.0454 47.0318C60.0479 47.0512 60.0503 47.073 60.0528 47.0923C60.0699 47.2062 60.0846 47.3175 60.1019 47.4315C60.1754 47.9498 60.2488 48.4657 60.3199 48.9842C60.3248 49.0108 60.3297 49.0327 60.3322 49.0593V49.0618C60.4448 49.8707 60.5527 50.6799 60.6556 51.4889C60.663 51.5179 60.6655 51.5445 60.6679 51.5713C60.6899 51.736 60.7121 51.8983 60.7316 52.0606C60.7119 51.891 60.6948 51.7263 60.6801 51.5567C60.6801 51.5543 60.6801 51.5543 60.6801 51.5543C60.6776 51.5301 60.6751 51.5059 60.6751 51.4816C60.533 49.8998 60.4742 48.3084 60.5011 46.7194V46.6249C60.511 46.1332 60.5281 45.639 60.5525 45.1473V45.1449C60.555 45.1183 60.555 45.0939 60.5574 45.0649C60.5795 44.6337 60.609 44.2025 60.6456 43.7713C60.6481 43.7423 60.6505 43.7132 60.653 43.6818C60.6653 43.5268 60.6799 43.3716 60.6947 43.2167C60.7265 42.8726 60.7658 42.5288 60.8099 42.1847C60.8124 42.1581 60.8149 42.1339 60.8198 42.1096C60.9007 41.4822 61.0035 40.8597 61.1481 40.2445C61.153 40.2203 61.1578 40.1984 61.1652 40.1742C61.2044 39.9973 61.2509 39.8206 61.3 39.6461C61.3466 39.4741 61.4004 39.3045 61.4592 39.1349C61.4592 39.1325 61.4592 39.1325 61.4592 39.1325C61.4666 39.1108 61.4764 39.0864 61.4837 39.0647C61.6772 38.5366 61.9419 38.0376 62.3585 37.6647C62.4785 37.558 62.6378 37.4612 62.7898 37.4563H62.7922C62.8142 37.4539 62.8364 37.4539 62.8584 37.4563C62.905 37.4636 62.949 37.4805 62.9907 37.5072C63.0863 37.5702 63.1329 37.6793 63.1746 37.7834C63.3535 38.2242 63.4809 38.6773 63.5715 39.1375C63.5789 39.1617 63.5814 39.1812 63.5863 39.2054V39.2078C63.6574 39.5736 63.704 39.9467 63.7309 40.322C63.7334 40.3462 63.7334 40.3705 63.7359 40.3947C63.7751 40.9543 63.7726 41.5187 63.7482 42.0854C63.7457 42.112 63.7457 42.1363 63.7432 42.1605V42.163C63.7163 42.7879 63.66 43.4104 63.6011 44.0281C63.5986 44.0571 63.5961 44.0837 63.5937 44.1105V44.1129C63.5912 44.1323 63.5912 44.1469 63.5888 44.1662C63.5569 44.5125 63.5226 44.859 63.4908 45.2053C63.4883 45.2343 63.4858 45.2634 63.4834 45.2924C63.4295 45.8593 63.3755 46.4284 63.3217 46.9953C63.3192 47.0194 63.3192 47.0461 63.3143 47.0704C63.253 47.7293 63.1918 48.3906 63.1281 49.0494C63.1281 49.0712 63.1257 49.0931 63.1232 49.1148C63.0913 49.4564 63.0595 49.7979 63.0276 50.1395C63.0252 50.1637 63.0227 50.1903 63.0203 50.2146C63.0129 50.2727 63.008 50.3308 63.0032 50.3891C62.9812 50.6289 62.959 50.8662 62.9346 51.106V51.1085C62.9321 51.1351 62.9296 51.1617 62.9272 51.1885C62.8733 51.7553 62.8218 52.3245 62.7679 52.8913C62.8316 52.3076 62.9052 51.7237 62.9909 51.1424L63.0032 51.0601C63.0301 50.8688 63.0595 50.6774 63.0913 50.486C63.0938 50.4618 63.0963 50.4374 63.1012 50.4133C63.1723 49.9676 63.2506 49.5218 63.334 49.0762L63.3511 48.9938C63.4614 48.3954 63.5863 47.802 63.7235 47.2085V47.2061C63.7285 47.1746 63.7359 47.1455 63.7431 47.1165C63.7431 47.114 63.7431 47.114 63.7431 47.114C63.8534 46.6272 63.9709 46.1452 64.0983 45.6631C64.1033 45.6365 64.1107 45.6123 64.118 45.5879C64.2234 45.1809 64.3361 44.7765 64.4538 44.3744C64.4611 44.3453 64.4684 44.3187 64.4782 44.2921C64.4782 44.2897 64.4782 44.2897 64.4782 44.2897C64.6179 43.8101 64.7649 43.3329 64.9218 42.8582C64.9267 42.8316 64.9366 42.805 64.9463 42.7806C64.9904 42.6425 65.0344 42.5044 65.081 42.3689C65.2329 41.9111 65.402 41.446 65.6029 41.0028C65.6128 40.9809 65.6225 40.9591 65.6348 40.9374C65.7817 40.6153 65.9483 40.3027 66.142 40.0145C66.1567 39.9952 66.169 39.9757 66.1813 39.9564C66.4778 39.5252 66.8355 39.1474 67.2766 38.8519C67.4432 38.7404 67.6589 38.646 67.855 38.6435C67.877 38.6435 67.9016 38.6435 67.9236 38.6484C68.024 38.6557 68.1147 38.6945 68.1907 38.767C68.367 38.9363 68.3498 39.2149 68.3179 39.4572Z" fill="#A7E1B4"/>
<path d="M63.3881 53.6193C63.3769 53.6193 63.3658 53.6132 63.3606 53.6023C63.3323 53.5455 64.1233 50.1275 64.966 46.9824C65.8025 43.8609 66.9854 39.8774 67.8683 38.6267C67.8782 38.6129 67.8971 38.6097 67.911 38.6193C67.9248 38.6289 67.9282 38.6477 67.9187 38.6616C66.2017 41.0929 63.4378 53.4225 63.4185 53.586C63.4198 53.5983 63.4134 53.6106 63.4015 53.6163C63.3972 53.6184 63.3926 53.6193 63.3881 53.6193Z" fill="#1E1A19"/>
<path d="M68.1418 40.4987C68.1369 40.5229 68.1321 40.5472 68.1272 40.5714C67.6517 40.7725 67.1886 41.0074 66.7451 41.269C66.7426 41.269 66.7426 41.2715 66.7401 41.2715C66.7352 41.2739 66.7303 41.2739 66.7254 41.2739H66.7131C66.7057 41.269 66.6983 41.2642 66.6958 41.2546C66.6958 41.2522 66.6934 41.2473 66.6934 41.2449C66.5414 40.8234 66.3576 40.4091 66.1421 40.0143C66.1567 39.995 66.169 39.9755 66.1813 39.9562C66.3946 40.3437 66.5758 40.7434 66.7254 41.1551V41.1576C66.7303 41.1722 66.7352 41.1842 66.7401 41.1988C66.7524 41.1915 66.7646 41.1842 66.7769 41.177C67.2156 40.9226 67.6713 40.6949 68.1418 40.4987Z" fill="#1E1A19"/>
<path d="M67.8597 41.7099C67.8548 41.7341 67.8499 41.756 67.8427 41.7802C67.3574 41.9522 66.8723 42.1435 66.4018 42.3494C66.3968 42.3519 66.3919 42.3519 66.387 42.3519C66.3845 42.3519 66.3796 42.3519 66.3772 42.3494C66.3698 42.347 66.3624 42.3421 66.3599 42.335C66.3527 42.3204 66.3453 42.3059 66.3379 42.2913C66.1248 41.8457 65.8773 41.4145 65.6028 41.0027C65.6126 40.9808 65.6223 40.959 65.6346 40.9373C65.9067 41.3443 66.1518 41.7681 66.3648 42.2065C66.3796 42.2282 66.3893 42.2526 66.4016 42.2767C66.4016 42.2792 66.4041 42.2792 66.4041 42.2816C66.8797 42.0757 67.3672 41.8819 67.8597 41.7099Z" fill="#1E1A19"/>
<path d="M67.3551 43.4417C67.3477 43.4659 67.3403 43.4926 67.3331 43.5168C66.7989 43.7325 66.2819 43.9892 65.7892 44.2847C65.7868 44.2847 65.7843 44.2872 65.7819 44.2872C65.7794 44.2896 65.7745 44.2896 65.772 44.2896C65.7695 44.2896 65.7671 44.2896 65.7646 44.2872C65.7572 44.2872 65.7499 44.2799 65.7451 44.275L65.7328 44.2533V44.2508L64.9216 42.858C64.9266 42.8313 64.9364 42.8047 64.9461 42.7804L65.7572 44.1684L65.7842 44.2169C65.7915 44.212 65.7963 44.2072 65.8037 44.2047H65.8062C66.3014 43.9117 66.8209 43.6549 67.3551 43.4417Z" fill="#1E1A19"/>
<path d="M66.7375 45.3044C66.7276 45.331 66.7203 45.3553 66.7106 45.3819C66.2744 45.5684 65.8283 45.7307 65.3775 45.8663C65.3677 45.8688 65.3555 45.8736 65.3408 45.8736C65.3383 45.8736 65.3334 45.8736 65.3285 45.8712C65.326 45.8712 65.3235 45.8688 65.3211 45.8688C65.3015 45.8615 65.2868 45.847 65.2794 45.8324C65.2769 45.83 65.2744 45.8276 65.2744 45.8251C64.9903 45.3456 64.7158 44.8587 64.4536 44.3742C64.461 44.3451 64.4682 44.3185 64.4781 44.2919C64.7427 44.7812 65.0197 45.2704 65.3014 45.7524C65.3088 45.767 65.3186 45.779 65.3258 45.7936C65.3283 45.7985 65.3357 45.8105 65.3406 45.813C65.3406 45.813 65.3431 45.813 65.3455 45.8105C65.348 45.8105 65.3554 45.8105 65.3578 45.8081C65.8259 45.6679 66.289 45.4983 66.7375 45.3044Z" fill="#1E1A19"/>
<path d="M66.365 46.409C66.3576 46.4357 66.348 46.4623 66.3381 46.489V46.4915C65.9093 46.6804 65.4731 46.8475 65.0295 46.9929H65.0271C65.0246 46.9954 65.0246 46.9954 65.0222 46.9954C65.0123 46.9954 65.0026 46.9905 64.9952 46.9808L64.9757 46.9493L64.0984 45.663C64.1033 45.6364 64.1107 45.6122 64.1181 45.5879L64.9952 46.8717L65.0345 46.9298C65.0369 46.9298 65.0417 46.9274 65.0443 46.9274C65.4902 46.7773 65.9338 46.6052 66.365 46.409Z" fill="#1E1A19"/>
<path d="M65.8506 48.0465C65.8407 48.0731 65.8309 48.0975 65.826 48.1241C65.4339 48.2937 65.0296 48.4413 64.6205 48.5601H64.618C64.6155 48.5601 64.6155 48.5601 64.6131 48.5601C64.6032 48.5601 64.596 48.5577 64.5886 48.5504C64.5812 48.5407 64.5715 48.5286 64.5642 48.5189V48.5165C64.2358 48.1095 63.954 47.6736 63.7236 47.2085V47.206C63.7286 47.1746 63.7359 47.1455 63.7432 47.1165C63.976 47.5864 64.2554 48.0321 64.5812 48.4439C64.596 48.4632 64.6082 48.4803 64.6229 48.4972C64.6279 48.4947 64.6302 48.4947 64.6351 48.4923C65.0493 48.3686 65.4561 48.221 65.8506 48.0465Z" fill="#1E1A19"/>
<path d="M65.3457 49.7978C65.3408 49.8195 65.3334 49.8414 65.3286 49.8632C65.0395 49.9188 64.7552 49.9964 64.4807 50.0957C64.4219 50.1175 64.3582 50.1418 64.2921 50.1418C64.2773 50.1418 64.2602 50.1394 64.2454 50.1369C64.2381 50.1345 64.2307 50.1345 64.2259 50.1296C64.2039 50.1272 64.1842 50.1175 64.1647 50.103C64.1108 50.0764 64.0667 50.0303 64.025 49.9844C63.7702 49.7035 63.5374 49.3982 63.334 49.0761L63.3511 48.9937C63.3535 48.9937 63.3535 48.9961 63.356 48.9985C63.5643 49.3328 63.8043 49.6525 64.0691 49.9432C64.1034 49.9795 64.1402 50.0183 64.1794 50.0425C64.1967 50.0571 64.2187 50.0667 64.2407 50.0715C64.2456 50.074 64.2528 50.0764 64.2577 50.0764C64.3214 50.091 64.3901 50.0644 64.4587 50.0401C64.7478 49.9359 65.0443 49.8534 65.3457 49.7978Z" fill="#1E1A19"/>
<path d="M65.0739 50.8418C64.6964 50.9605 64.3241 51.0961 63.959 51.2367H63.9565L63.9541 51.2391L63.9002 51.1859L63.1014 50.4131C63.0965 50.4373 63.094 50.4616 63.0916 50.4858L63.883 51.2537L63.9272 51.2949C63.9296 51.2974 63.937 51.2998 63.9419 51.2998C63.9444 51.3022 63.9444 51.3022 63.9468 51.3022H63.9592C64.3193 51.1617 64.6869 51.0309 65.0569 50.9098L65.0739 50.8418Z" fill="#1E1A19"/>
<path d="M64.8557 51.738C64.8484 51.7598 64.841 51.7841 64.8385 51.8083C64.4563 51.9779 64.0765 52.1571 63.704 52.3461C63.699 52.3485 63.6966 52.351 63.6941 52.351H63.6917C63.6818 52.351 63.672 52.3461 63.667 52.3388L63.6352 52.3L62.9565 51.4691C62.9467 51.457 62.9491 51.4377 62.9614 51.4279C62.9737 51.4182 62.9933 51.4182 63.0031 51.4328L63.6524 52.2273L63.699 52.283C63.704 52.2806 63.7064 52.2781 63.7113 52.2781C64.0863 52.0868 64.4709 51.9052 64.8557 51.738Z" fill="#1E1A19"/>
<path d="M62.8585 37.4564C62.6379 38.0426 62.4615 38.9969 62.3194 40.1548C62.3144 40.1863 62.3121 40.2178 62.3072 40.2493C62.2655 40.5957 62.2263 40.9614 62.192 41.3393C62.1895 41.3659 62.1871 41.3926 62.1846 41.4193C62.1234 42.0564 62.0718 42.7298 62.0278 43.4201C62.0253 43.4492 62.0229 43.4782 62.0204 43.5073C61.9886 44.0449 61.9567 44.5925 61.9298 45.1398C61.9298 45.1616 61.9273 45.1835 61.9273 45.2028C61.9101 45.5806 61.893 45.9585 61.8783 46.3316C61.8758 46.3558 61.8758 46.38 61.8733 46.4043C61.8538 46.9493 61.8341 47.4847 61.8195 48.0054C61.8195 48.0296 61.8195 48.0514 61.817 48.0757C61.8024 48.6377 61.7876 49.1777 61.7778 49.6841V49.747C61.7679 50.166 61.763 50.5584 61.7582 50.9218C61.7558 50.946 61.7558 50.9703 61.7558 50.9921C61.7509 51.3723 61.7484 51.7212 61.7435 52.024C61.7459 52.0506 61.7435 52.0773 61.7435 52.1014C61.7386 52.8935 61.741 53.3804 61.7435 53.4119C61.7459 53.424 61.7435 53.4385 61.7312 53.4458C61.7262 53.4507 61.7189 53.4531 61.7139 53.4531C61.7041 53.4531 61.6944 53.4507 61.6895 53.4409C61.6821 53.4312 61.6773 52.9177 61.6821 52.0747V51.9924C61.6846 51.6847 61.687 51.3384 61.6919 50.958C61.6919 50.9338 61.6919 50.9095 61.6944 50.8853C61.6993 50.5268 61.7042 50.1417 61.7139 49.7347V49.6693C61.7238 49.1558 61.7384 48.6083 61.7532 48.0416C61.7556 48.0174 61.7556 47.9907 61.7581 47.964C61.7727 47.4457 61.7899 46.9128 61.8144 46.3703C61.8144 46.3412 61.8144 46.3122 61.8169 46.2855C61.8316 45.9173 61.8463 45.5444 61.866 45.1737C61.866 45.1423 61.8684 45.1132 61.8684 45.0842C61.8978 44.5415 61.9272 44.0014 61.9615 43.4709C61.964 43.4419 61.9664 43.4128 61.9664 43.3838C62.013 42.6861 62.0669 42.0031 62.1281 41.3612C62.1306 41.3298 62.133 41.2983 62.1355 41.2692C62.1698 40.9083 62.2091 40.5596 62.2483 40.2277C62.2532 40.1938 62.2557 40.1598 62.2604 40.1284V40.1259C62.4026 38.9851 62.5765 38.0427 62.7897 37.4565H62.7922C62.8143 37.454 62.8363 37.454 62.8585 37.4564Z" fill="#1E1A19"/>
<path d="M63.5863 39.2051V39.2075C63.1355 39.5224 62.7066 39.8737 62.3072 40.2491C62.2998 40.2564 62.2926 40.2588 62.2852 40.2588C62.2828 40.2588 62.2828 40.2588 62.2803 40.2588C62.2705 40.2564 62.2632 40.2515 62.2583 40.2444C62.2558 40.2395 62.2509 40.2322 62.2485 40.2273C62.0132 39.8471 61.751 39.4789 61.4595 39.1348C61.4595 39.1324 61.4595 39.1324 61.4595 39.1324C61.4669 39.1107 61.4767 39.0863 61.4839 39.0646C61.7657 39.3989 62.028 39.7525 62.2608 40.1256V40.128C62.2706 40.145 62.2829 40.1619 62.2926 40.179C62.3025 40.1717 62.3098 40.1619 62.3195 40.1548C62.7116 39.7866 63.1331 39.4475 63.5716 39.1374C63.5789 39.1616 63.5813 39.1809 63.5863 39.2051Z" fill="#1E1A19"/>
<path d="M63.7355 40.3945C63.2137 40.7117 62.7039 41.0558 62.209 41.4142C62.204 41.4167 62.1966 41.4191 62.1894 41.4191C62.187 41.4191 62.1845 41.4191 62.1845 41.4191C62.1771 41.4167 62.1697 41.4118 62.1648 41.4069C62.1525 41.3925 62.1403 41.3755 62.128 41.361C61.8266 40.9686 61.4983 40.5907 61.1479 40.2443C61.1529 40.2202 61.1576 40.1983 61.165 40.1741C61.5106 40.5157 61.8365 40.8837 62.1354 41.269C62.1551 41.2907 62.1722 41.3151 62.1917 41.3393C62.1917 41.3417 62.1942 41.3441 62.1966 41.3466C62.6916 40.9856 63.2087 40.6393 63.7306 40.3219C63.7331 40.3461 63.7331 40.3703 63.7355 40.3945Z" fill="#1E1A19"/>
<path d="M63.7479 42.0853C63.7455 42.1119 63.7455 42.1363 63.743 42.1605V42.1629C63.1328 42.5504 62.5571 43.0009 62.0303 43.4999C62.0278 43.5024 62.0253 43.5072 62.0204 43.5072C62.018 43.5097 62.013 43.5097 62.0081 43.5097C61.9983 43.5097 61.991 43.5048 61.9861 43.4999L61.9616 43.4709L60.81 42.1846L60.7856 42.158C60.7732 42.1459 60.7732 42.1265 60.788 42.1144C60.7979 42.1071 60.81 42.1046 60.8199 42.1095C60.8248 42.1119 60.8272 42.1119 60.8322 42.1168L61.9667 43.3836L62.0109 43.4344C62.0158 43.4295 62.0232 43.4247 62.028 43.4198C62.5571 42.9185 63.1353 42.4729 63.7479 42.0853Z" fill="#1E1A19"/>
<path d="M63.6009 44.0278C63.5984 44.0569 63.596 44.0835 63.5935 44.1103V44.1127C63.0838 44.51 62.5374 44.8733 61.9739 45.1882C61.9617 45.1955 61.9469 45.2028 61.9274 45.2028H61.9175C61.8931 45.2003 61.8758 45.1834 61.8662 45.1737C61.8637 45.1713 61.8612 45.1688 61.8612 45.1688C61.4495 44.7135 61.0429 44.2435 60.6458 43.7711C60.6482 43.7421 60.6507 43.713 60.6531 43.6815C61.0501 44.1586 61.4569 44.6286 61.8685 45.084C61.8808 45.0984 61.8954 45.113 61.9077 45.1276C61.92 45.1398 61.9249 45.1422 61.9249 45.1422C61.9249 45.1422 61.9274 45.1422 61.9299 45.1398C61.9348 45.1398 61.9397 45.1374 61.9422 45.1349C62.5204 44.8104 63.079 44.4373 63.6009 44.0278Z" fill="#1E1A19"/>
<path d="M63.4908 45.2051C63.4884 45.2342 63.4859 45.2632 63.4834 45.2923C62.9762 45.6969 62.4372 46.0722 61.8808 46.4017C61.8784 46.4017 61.8759 46.4041 61.8735 46.4041C61.871 46.4065 61.8685 46.4065 61.8638 46.4065C61.8564 46.4065 61.849 46.4017 61.8416 46.3968L61.8147 46.3702L60.5527 45.1469V45.1445C60.5552 45.1178 60.5552 45.0935 60.5577 45.0645L61.8171 46.2853L61.8687 46.3363C61.8711 46.3338 61.8761 46.3314 61.8785 46.3314C62.4395 45.9971 62.9811 45.6193 63.4908 45.2051Z" fill="#1E1A19"/>
<path d="M63.3216 46.9952C63.3191 47.0193 63.3191 47.046 63.3142 47.0703C62.8511 47.4481 62.3488 47.7824 61.8219 48.073C61.8195 48.073 61.8195 48.0755 61.817 48.0755C61.8146 48.0779 61.8096 48.0779 61.8072 48.0779C61.7998 48.0779 61.7924 48.0755 61.7876 48.0706C61.7753 48.0609 61.7655 48.0513 61.7533 48.0416C61.2853 47.6516 60.8639 47.2082 60.5012 46.719V46.6245C60.5061 46.6269 60.5111 46.6294 60.5134 46.6342C60.8736 47.126 61.2925 47.5742 61.7582 47.964C61.7753 47.981 61.7926 47.9955 61.8096 48.0101C61.8121 48.0076 61.817 48.0052 61.8195 48.0052C62.3438 47.7121 62.8413 47.3754 63.3044 47C63.3118 46.9952 63.3142 46.9952 63.3216 46.9952Z" fill="#1E1A19"/>
<path d="M61.7931 49.7475C61.7 49.7475 61.6198 49.6942 61.5456 49.6396C61.2149 49.3969 60.9041 49.1236 60.6214 48.8264C60.6097 48.8141 60.6103 48.7945 60.6228 48.7829C60.6354 48.7718 60.6551 48.7723 60.6668 48.7843C60.9468 49.0786 61.2547 49.3499 61.5826 49.5904C61.6484 49.6389 61.7187 49.6859 61.7929 49.6859C61.7941 49.6859 61.7954 49.6859 61.7963 49.6859C61.8626 49.6847 61.9254 49.6454 61.9855 49.6075C62.3419 49.3826 62.7211 49.1964 63.1155 49.0524C63.1313 49.0468 63.1498 49.0545 63.1555 49.0707C63.1615 49.0865 63.153 49.1043 63.137 49.1102C62.7467 49.2526 62.3716 49.4369 62.0214 49.658C61.9543 49.6999 61.8812 49.7458 61.7974 49.7475C61.7961 49.7475 61.7944 49.7475 61.7931 49.7475Z" fill="#1E1A19"/>
<path d="M61.7544 50.9915C61.7487 50.9915 61.7427 50.9898 61.7375 50.9864L60.6391 50.2851C60.6248 50.2759 60.6206 50.257 60.63 50.2426C60.6394 50.2284 60.6585 50.2243 60.6731 50.2336L61.754 50.9238C62.1675 50.6468 62.597 50.3823 63.0313 50.137C63.0459 50.1292 63.0653 50.134 63.0736 50.1486C63.0821 50.1632 63.077 50.1819 63.0619 50.1904C62.6233 50.438 62.1892 50.7058 61.7718 50.9861C61.7667 50.9896 61.7607 50.9915 61.7544 50.9915Z" fill="#1E1A19"/>
<path d="M61.7434 52.0239C62.1305 51.7066 62.53 51.3989 62.9343 51.1083C62.9318 51.1349 62.9294 51.1615 62.9269 51.1883C62.525 51.4789 62.133 51.7842 61.7507 52.099C61.7482 52.1014 61.7457 52.1014 61.7433 52.1014C61.7408 52.1063 61.7359 52.1063 61.731 52.1063C61.7261 52.1063 61.7187 52.1039 61.7113 52.099L61.6819 52.0748L60.8169 51.3676C60.8046 51.3579 60.8021 51.3385 60.812 51.3264C60.8243 51.3118 60.8438 51.3118 60.8561 51.3215L61.6819 51.9924V51.9948L61.731 52.0336C61.7361 52.0312 61.7385 52.0263 61.7434 52.0239Z" fill="#1E1A19"/>
<path d="M60.0284 53.9521C60.0235 53.9618 60.0136 53.9665 60.0015 53.9665C59.9965 53.9665 59.9916 53.9665 59.9867 53.9641C59.9744 53.9568 59.9696 53.9448 59.9696 53.9326C59.9671 53.9011 59.8862 53.4191 59.7417 52.6415C59.7393 52.6173 59.7344 52.5931 59.7294 52.5663C59.6756 52.266 59.6119 51.9244 59.5383 51.5466C59.5359 51.5248 59.531 51.5029 59.526 51.4812C59.4574 51.1227 59.3839 50.7351 59.3031 50.3257C59.2982 50.3064 59.2957 50.2869 59.2909 50.2652C59.1929 49.7662 59.0851 49.2357 58.97 48.6834C58.9675 48.6617 58.9626 48.6373 58.9578 48.6156C58.8524 48.107 58.7421 47.5812 58.6246 47.0484C58.6221 47.0242 58.6147 46.9999 58.61 46.9757C58.5315 46.6124 58.4483 46.2441 58.3649 45.8759C58.3599 45.8542 58.3575 45.8347 58.3502 45.813C58.2302 45.2776 58.1052 44.7424 57.9778 44.2167C57.9704 44.1901 57.9654 44.1611 57.9581 44.1343C57.7939 43.461 57.6273 42.8068 57.4557 42.1892C57.4508 42.165 57.4434 42.1384 57.436 42.114C57.3356 41.7483 57.2351 41.3947 57.1346 41.0604C57.1248 41.0289 57.1149 40.9974 57.1052 40.9659C56.9998 40.6243 56.8944 40.2997 56.7915 40.0018C56.8038 39.9776 56.816 39.9533 56.8332 39.9315C56.9411 40.2392 57.0512 40.5759 57.1591 40.932C57.1689 40.9635 57.1788 40.995 57.1885 41.0264C57.2865 41.3461 57.382 41.6829 57.48 42.0341C57.4874 42.0631 57.4946 42.0922 57.5045 42.1212C57.676 42.7462 57.8451 43.4099 58.0118 44.0905C58.0191 44.1196 58.0265 44.1486 58.0338 44.1777C58.1587 44.6936 58.2838 45.2192 58.4038 45.7448C58.4087 45.7763 58.4159 45.8054 58.4233 45.8344C58.5043 46.1978 58.585 46.5611 58.6635 46.9196C58.6707 46.9462 58.6757 46.9728 58.6806 46.9996C58.7957 47.5301 58.9084 48.0557 59.0114 48.5643C59.0188 48.5909 59.0237 48.6175 59.0286 48.6443C59.1438 49.2014 59.2515 49.7368 59.3496 50.2381C59.3545 50.2598 59.3594 50.2793 59.3619 50.3011C59.4428 50.7008 59.5139 51.081 59.5825 51.4323C59.5874 51.4565 59.5899 51.4809 59.5948 51.505C59.6659 51.8781 59.7296 52.222 59.7859 52.5224C59.7908 52.549 59.7933 52.5756 59.8007 52.6C59.9499 53.4313 60.0333 53.9423 60.0284 53.9521Z" fill="#1E1A19"/>
<path d="M57.7739 39.8206C57.5485 40.2082 57.3523 40.6127 57.1881 41.0269C57.1857 41.0318 57.1832 41.0389 57.1807 41.0438C57.1783 41.0535 57.1709 41.0606 57.1612 41.0631C57.1587 41.0631 57.1563 41.0655 57.1514 41.0655C57.1464 41.0655 57.1391 41.0631 57.1343 41.0606C56.9455 40.9347 56.7495 40.8136 56.5535 40.6997C56.5559 40.678 56.5607 40.6561 56.5656 40.6343C56.7493 40.7385 56.9283 40.8498 57.1047 40.9638V40.9662C57.1144 40.9711 57.1267 40.9784 57.1366 40.9855C57.1438 40.9686 57.1512 40.9492 57.1586 40.9323C57.3203 40.5326 57.5139 40.1426 57.7296 39.7695C57.7469 39.7867 57.7616 39.8036 57.7739 39.8206Z" fill="#1E1A19"/>
<path d="M58.3865 40.7023C58.0581 41.1528 57.7592 41.6277 57.5044 42.1218C57.4946 42.1387 57.4849 42.1582 57.475 42.175C57.4726 42.1848 57.4652 42.1895 57.4555 42.1895C57.453 42.1919 57.4481 42.1919 57.4456 42.1919C57.4407 42.1919 57.4382 42.1919 57.4333 42.1895C57.1124 42.0296 56.7863 41.8795 56.458 41.7366L56.4605 41.6687C56.7888 41.8117 57.1122 41.9618 57.4333 42.1192C57.4333 42.1168 57.4358 42.1168 57.4358 42.1144L57.4799 42.0344C57.7347 41.5499 58.0264 41.0824 58.3523 40.6439C58.3645 40.6635 58.3743 40.6829 58.3865 40.7023Z" fill="#1E1A19"/>
<path d="M58.9649 42.6837L58.0338 44.1757V44.1781L58.0142 44.2072C58.0093 44.2145 58.0019 44.2193 57.9947 44.2193C57.9922 44.2218 57.9898 44.2218 57.9873 44.2218C57.9824 44.2218 57.9799 44.2218 57.9775 44.2169C57.975 44.2193 57.9725 44.2169 57.9701 44.2145C57.4947 43.8996 56.9948 43.6161 56.4778 43.3763C56.4753 43.3521 56.4753 43.3303 56.4753 43.306C56.9898 43.5434 57.485 43.8195 57.9578 44.1345C57.9652 44.1369 57.9701 44.1418 57.9775 44.1465L58.0118 44.0908L58.9111 42.6496C58.9209 42.6351 58.9405 42.6303 58.9552 42.6398C58.9698 42.6497 58.9748 42.6668 58.9649 42.6837Z" fill="#1E1A19"/>
<path d="M59.5088 44.0233C59.1607 44.6337 58.7956 45.2417 58.4256 45.8303C58.4256 45.8328 58.4231 45.8328 58.4231 45.8352C58.4133 45.8474 58.3987 45.8667 58.3742 45.874C58.3718 45.8764 58.3668 45.8764 58.3644 45.8764H58.357C58.3398 45.8764 58.3276 45.8716 58.3178 45.8691C57.7492 45.6681 57.1906 45.4233 56.6515 45.1424C56.6465 45.1158 56.6441 45.0892 56.6392 45.0649C57.1881 45.3531 57.7565 45.6025 58.3398 45.8109C58.3422 45.8109 58.3447 45.8133 58.3496 45.8133C58.3521 45.8133 58.357 45.8157 58.357 45.8157C58.3595 45.8133 58.3619 45.8109 58.3718 45.7964C58.3816 45.7794 58.3938 45.7625 58.4036 45.7456C58.7638 45.1763 59.1166 44.5853 59.4548 43.9918C59.4622 43.9772 59.4842 43.9724 59.4965 43.9797C59.5135 43.9894 59.5185 44.0087 59.5088 44.0233Z" fill="#1E1A19"/>
<path d="M56.8257 46.2129C57.4016 46.5326 58.0067 46.8137 58.6194 47.0487C58.6218 47.0487 58.6218 47.0487 58.6243 47.0487C58.6268 47.0487 58.6292 47.0487 58.6317 47.0487C58.6415 47.0487 58.6512 47.0463 58.6561 47.0365C58.6635 47.0244 58.6734 47.0148 58.6806 47.0026V47.0002C59.0506 46.4939 59.4207 45.9853 59.7882 45.4789C59.7981 45.4645 59.7956 45.445 59.7809 45.4353C59.7685 45.4255 59.749 45.428 59.7392 45.4426C59.3814 45.9367 59.0237 46.4285 58.6634 46.9202C58.6488 46.9395 58.634 46.9614 58.6192 46.9807C58.6168 46.9783 58.6118 46.9783 58.6094 46.9758C57.9919 46.7408 57.3891 46.4575 56.8132 46.1354L56.8257 46.2129Z" fill="#1E1A19"/>
<path d="M58.9779 48.6865C58.9745 48.6865 58.9709 48.686 58.9675 48.6848C58.3887 48.4846 57.8242 48.2319 57.2899 47.933C57.2751 47.9248 57.2697 47.9058 57.2782 47.8912C57.2868 47.8763 57.3057 47.8706 57.3205 47.8796C57.8455 48.1731 58.3998 48.422 58.968 48.6198C59.3777 48.1423 59.7273 47.613 60.007 47.0471C60.0147 47.0321 60.0336 47.0256 60.0486 47.0329C60.0641 47.0405 60.0704 47.0589 60.063 47.0741C59.7778 47.6513 59.4205 48.1902 59.0016 48.6758C58.9956 48.6827 58.9866 48.6865 58.9779 48.6865Z" fill="#1E1A19"/>
<path d="M59.2441 50.3331C59.175 50.3331 59.1084 50.3058 59.0485 50.2815C58.6623 50.1218 58.2608 50.0038 57.8514 49.9292C57.8346 49.9262 57.8234 49.9101 57.8264 49.8934C57.8295 49.8768 57.8457 49.8669 57.8629 49.8687C58.2765 49.944 58.6825 50.0634 59.0695 50.2234C59.1388 50.2518 59.2075 50.2792 59.2722 50.2698C59.3467 50.2582 59.4089 50.1991 59.4663 50.1391C59.7132 49.8827 59.9911 49.4634 60.2143 49.1265L60.3002 48.9971C60.3092 48.9831 60.3289 48.9788 60.3433 48.9886C60.3574 48.9978 60.3614 49.017 60.3519 49.0311L60.2662 49.1601C60.0417 49.4991 59.762 49.9212 59.5112 50.1817C59.4464 50.2489 59.3753 50.316 59.2818 50.3303C59.269 50.3324 59.2565 50.3331 59.2441 50.3331Z" fill="#1E1A19"/>
<path d="M58.2174 51.0188C58.6585 51.1786 59.0947 51.3555 59.521 51.5468C59.5259 51.5493 59.5308 51.5493 59.5332 51.5493C59.5356 51.5493 59.5356 51.5493 59.5381 51.5468C59.5455 51.5493 59.5504 51.5468 59.5553 51.542L59.5945 51.5056L60.5158 50.6652C60.528 50.653 60.528 50.6337 60.5183 50.6215C60.506 50.6071 60.4865 50.6071 60.4741 50.6191L59.5822 51.4329L59.5284 51.4814H59.5259C59.0897 51.2853 58.6389 51.1059 58.1904 50.9461V50.9436L58.2174 51.0188Z" fill="#1E1A19"/>
<path d="M60.6997 51.5323C60.6948 51.5396 60.6874 51.5469 60.68 51.554C60.68 51.554 60.68 51.554 60.68 51.5565C60.6751 51.5613 60.6726 51.5662 60.6679 51.5711C60.5454 51.7116 60.3861 51.9005 60.2341 52.0845C60.0823 52.2686 59.9206 52.46 59.8004 52.6004C59.7906 52.6126 59.7809 52.6222 59.7735 52.6319C59.7661 52.6392 59.7587 52.6441 59.749 52.6441C59.7466 52.6441 59.7441 52.6441 59.7416 52.6416C59.7392 52.6416 59.7367 52.6392 59.7342 52.6392C59.3691 52.4308 58.9991 52.2322 58.6266 52.0433C58.6192 52.0287 58.6143 52.0118 58.6071 51.9972C58.6022 51.9826 58.5948 51.9706 58.5898 51.956C58.972 52.1498 59.3568 52.3533 59.7293 52.5664C59.7342 52.5688 59.7367 52.5712 59.7416 52.5737C59.7564 52.5566 59.771 52.5397 59.7858 52.5229C59.9033 52.3872 60.0455 52.2127 60.1852 52.0457C60.3543 51.8447 60.5258 51.6363 60.6532 51.4911L60.6557 51.4886C60.6606 51.4838 60.668 51.4813 60.6752 51.4813C60.6826 51.4813 60.69 51.4838 60.6972 51.4886C60.7094 51.4984 60.7119 51.5177 60.6997 51.5323Z" fill="#1E1A19"/>
<path d="M59.9157 56.0667L56.637 43.7236" stroke="#FEBB64" stroke-width="1.189" stroke-miterlimit="10"/>
<path d="M55.9936 43.7949C54.3636 44.7474 53.4936 46.2743 54.0504 47.2053C54.607 48.1362 56.3798 48.1187 58.0098 47.1662C59.6397 46.2136 60.5098 44.6867 59.9532 43.7558C59.3963 42.8248 57.6236 42.8423 55.9936 43.7949Z" fill="white"/>
<path d="M56.3231 44.4918C55.8581 44.7635 55.6058 45.1919 55.7593 45.4488C55.9129 45.7057 56.4143 45.6935 56.8791 45.4219C57.3441 45.1502 57.5964 44.7218 57.4428 44.4649C57.2893 44.208 56.7879 44.2202 56.3231 44.4918Z" fill="#FEBB64"/>
<path d="M55.8982 45.4513L54.5283 47.6478L54.5968 47.6896L55.9667 45.493L55.8982 45.4513Z" fill="#FEBB64"/>
<path d="M56.6833 47.725L56.4468 45.3277L56.5266 45.3201L56.7633 47.7175L56.6833 47.725Z" fill="#FEBB64"/>
<path d="M57.0677 45.0585L57.0322 45.1299L59.2494 46.2068L59.2849 46.1354L57.0677 45.0585Z" fill="#FEBB64"/>
<path d="M57.1741 44.7635L57.1555 44.6864L60.0591 43.9951L60.0778 44.0722L57.1741 44.7635Z" fill="#FEBB64"/>
<path d="M56.9066 44.5389L56.8381 44.4974L57.6984 43.1129L57.7668 43.1544L56.9066 44.5389Z" fill="#FEBB64"/>
<path d="M55.7403 43.9522L55.6741 43.9974L56.1538 44.6844L56.22 44.6392L55.7403 43.9522Z" fill="#FEBB64"/>
<path d="M54.2057 45.5541L54.1909 45.4762L56.0149 45.1436L56.0298 45.2214L54.2057 45.5541Z" fill="#FEBB64"/>
<path d="M62.8447 60.4655L66.1234 48.1224" stroke="#FEBB64" stroke-width="1.189" stroke-miterlimit="10"/>
<path d="M66.7667 48.1937C68.3967 49.1462 69.2667 50.6731 68.7099 51.6041C68.1533 52.535 66.3805 52.5175 64.7505 51.565C63.1205 50.6124 62.2505 49.0855 62.8071 48.1546C63.3639 47.2236 65.1367 47.2411 66.7667 48.1937Z" fill="white"/>
<path d="M66.4375 48.8906C66.9024 49.1622 67.1547 49.5906 67.0012 49.8475C66.8476 50.1043 66.3462 50.0922 65.8814 49.8206C65.4165 49.549 65.1641 49.1205 65.3177 48.8638C65.4712 48.6069 65.9725 48.6189 66.4375 48.8906Z" fill="#FEBB64"/>
<path d="M66.8637 49.8494L66.7952 49.8911L68.1645 52.0877L68.233 52.046L66.8637 49.8494Z" fill="#FEBB64"/>
<path d="M66.0769 52.1239L66.3136 49.7265L66.2336 49.7189L65.9971 52.1163L66.0769 52.1239Z" fill="#FEBB64"/>
<path d="M65.6924 49.4556L63.4751 50.5326L63.5106 50.604L65.7279 49.527L65.6924 49.4556Z" fill="#FEBB64"/>
<path d="M65.5862 49.1622L65.6049 49.0851L62.7012 48.3938L62.6826 48.4709L65.5862 49.1622Z" fill="#FEBB64"/>
<path d="M65.8536 48.9377L65.9221 48.8964L65.0619 47.5117L64.9934 47.5532L65.8536 48.9377Z" fill="#FEBB64"/>
<path d="M67.0246 48.3493L66.5449 49.0363L66.6111 49.0814L67.0908 48.3945L67.0246 48.3493Z" fill="#FEBB64"/>
<path d="M68.5549 49.9529L68.5696 49.875L66.7455 49.5424L66.7307 49.6202L68.5549 49.9529Z" fill="#FEBB64"/>
<path d="M61.4072 53.4338L63.5966 40.8572" stroke="#FEBB64" stroke-width="1.189" stroke-miterlimit="10"/>
<path d="M64.2439 40.8733C65.9509 41.6833 66.951 43.1303 66.4774 44.1052C66.004 45.0801 64.2363 45.214 62.5294 44.4039C60.8224 43.5939 59.8223 42.1469 60.2957 41.172C60.7693 40.197 62.5368 40.0634 64.2439 40.8733Z" fill="white"/>
<path d="M63.9764 41.5956C64.4634 41.8266 64.7522 42.2319 64.6216 42.5008C64.4909 42.7697 63.9904 42.8006 63.5036 42.5694C63.0167 42.3384 62.728 41.9331 62.8585 41.6642C62.989 41.3953 63.4896 41.3645 63.9764 41.5956Z" fill="#FEBB64"/>
<path d="M64.487 42.5173L64.4224 42.5647L65.9783 44.6364L66.0429 44.589L64.487 42.5173Z" fill="#FEBB64"/>
<path d="M63.8997 44.8475L63.9261 42.439L63.8458 42.4382L63.8193 44.8468L63.8997 44.8475Z" fill="#FEBB64"/>
<path d="M63.2838 42.2199L61.1689 43.4819L61.2105 43.55L63.3254 42.288L63.2838 42.2199Z" fill="#FEBB64"/>
<path d="M63.152 41.9387L63.1638 41.8604L60.2108 41.4193L60.199 41.4978L63.152 41.9387Z" fill="#FEBB64"/>
<path d="M63.3989 41.6923L63.4635 41.6451L62.4858 40.3391L62.4211 40.3863L63.3989 41.6923Z" fill="#FEBB64"/>
<path d="M64.5124 41.0079L64.0945 41.7332L64.1644 41.7725L64.5824 41.0473L64.5124 41.0079Z" fill="#FEBB64"/>
<path d="M66.1785 42.4733L66.1863 42.3943L64.34 42.2185L64.332 42.2974L66.1785 42.4733Z" fill="#FEBB64"/>
<path d="M67.4283 53.5256L67.1809 54.6665L67.1 55.0396L67.0854 55.1074L65.9434 60.3977L65.8136 60.996L65.5882 62.0424L64.8896 65.2809L64.7844 65.7678H58.0237L57.9699 65.4602L57.938 65.2809L57.6905 63.9075L57.5484 63.1178L57.5411 63.0815L57.0755 60.4824L56.1149 55.1267L56.1125 55.1074L56.0315 54.6665L55.8257 53.5256H67.4283Z" fill="#FFA577"/>
<path d="M56.1631 54.6671H67.0909" stroke="white" stroke-miterlimit="10"/>
<path d="M66.8156 55.0374H56.2529V55.1796H66.8156V55.0374Z" fill="white"/>
<path d="M63.0777 56.8998C63.0424 56.8852 63.0051 56.8703 62.9674 56.8761C62.8737 56.8904 62.8481 57.0248 62.9007 57.1028C62.9532 57.1809 63.0478 57.2175 63.1329 57.2589C63.218 57.3002 63.3066 57.3617 63.322 57.4543C63.3472 57.6063 63.1655 57.774 63.2635 57.8937C63.3331 57.9787 63.4777 57.9334 63.5519 57.8523C63.626 57.7713 63.6703 57.6622 63.7613 57.5999C63.8699 57.5253 64.0179 57.5378 64.1427 57.581C64.2675 57.6242 64.3821 57.6945 64.5092 57.7305C64.7623 57.8022 65.0531 57.7206 65.2305 57.5282C65.4077 57.3358 65.4629 57.042 65.3672 56.7996C65.3388 56.7275 65.2969 56.6587 65.2354 56.6108C65.1769 56.5653 65.1038 56.541 65.03 56.5313C64.6895 56.4862 64.4046 56.7214 64.1311 56.8829C63.7125 57.1301 63.516 57.0818 63.0777 56.8998Z" fill="#FEE8D0"/>
<path d="M59.1331 59.8741C59.0979 59.8595 59.0605 59.8446 59.0228 59.8504C58.9291 59.8649 58.9035 59.9992 58.9562 60.0772C59.0086 60.1552 59.1033 60.1919 59.1883 60.2332C59.2734 60.2746 59.362 60.336 59.3774 60.4287C59.4027 60.5806 59.221 60.7484 59.319 60.8681C59.3885 60.9531 59.5331 60.9078 59.6074 60.8267C59.6816 60.7456 59.7259 60.6366 59.8168 60.5742C59.9255 60.4997 60.0735 60.5122 60.1983 60.5554C60.323 60.5986 60.4377 60.6688 60.5648 60.7049C60.8179 60.7765 61.1088 60.695 61.286 60.5026C61.4633 60.3102 61.5185 60.0163 61.4228 59.7739C61.3944 59.7018 61.3525 59.6331 61.291 59.5852C61.2325 59.5397 61.1593 59.5154 61.0856 59.5056C60.7451 59.4606 60.4601 59.6957 60.1867 59.8573C59.7679 60.1043 59.5713 60.0562 59.1331 59.8741Z" fill="#FEE8D0"/>
<path d="M62.4366 63.1399C62.4014 63.1253 62.364 63.1104 62.3263 63.1162C62.2326 63.1305 62.2071 63.2649 62.2595 63.343C62.312 63.421 62.4066 63.4576 62.4917 63.499C62.5768 63.5404 62.6654 63.6018 62.6808 63.6943C62.706 63.8462 62.5243 64.014 62.6223 64.1337C62.6919 64.2187 62.8365 64.1734 62.9106 64.0923C62.9848 64.0113 63.0291 63.9022 63.12 63.8399C63.2287 63.7653 63.3767 63.7778 63.5015 63.821C63.6262 63.8642 63.7407 63.9345 63.868 63.9705C64.1211 64.0421 64.412 63.9606 64.5892 63.7682C64.7665 63.5758 64.8217 63.282 64.726 63.0395C64.6976 62.9675 64.6557 62.8987 64.5942 62.8508C64.5357 62.8053 64.4626 62.781 64.3888 62.7712C64.0483 62.7262 63.7633 62.9614 63.4899 63.1229C63.0714 63.3702 62.875 63.3221 62.4366 63.1399Z" fill="#FEE8D0"/>
<path d="M58.5751 63.7671C58.3962 63.9608 58.1071 64.0433 57.8523 63.9706C57.796 63.9535 57.742 63.9318 57.6906 63.9076L57.5484 63.1179L57.541 63.0816C57.7958 62.9242 58.0604 62.7304 58.3742 62.7715C58.4477 62.7812 58.5211 62.8054 58.58 62.8515C58.6413 62.8975 58.683 62.9677 58.7123 63.0404C58.8079 63.2826 58.7514 63.5757 58.5751 63.7671Z" fill="#FEE8D0"/>
<path d="M65.9433 60.3977L65.8135 60.996C65.811 60.996 65.8061 60.9984 65.8036 61.0009C65.713 61.0638 65.6689 61.1729 65.5953 61.2527C65.5193 61.3352 65.3748 61.3787 65.3062 61.2939C65.2082 61.1753 65.3896 61.0057 65.365 60.8555C65.3478 60.7634 65.2596 60.7005 65.1764 60.6593C65.0905 60.618 64.995 60.5817 64.9436 60.5043C64.8896 60.4243 64.9167 60.2912 65.0097 60.2766C65.049 60.2717 65.0857 60.2863 65.1201 60.3008C65.4704 60.446 65.6664 60.5067 65.9433 60.3977Z" fill="#FEE8D0"/>
<path d="M57.0106 56.1929C56.9754 56.1783 56.938 56.1634 56.9003 56.1692C56.8066 56.1835 56.781 56.318 56.8335 56.396C56.886 56.474 56.9806 56.5107 57.0657 56.552C57.1508 56.5934 57.2394 56.6548 57.2548 56.7473C57.28 56.8993 57.0983 57.067 57.1963 57.1867C57.2658 57.2717 57.4106 57.2264 57.4848 57.1453C57.5589 57.0643 57.6032 56.9552 57.694 56.8929C57.8028 56.8183 57.9507 56.8308 58.0756 56.874C58.2004 56.9172 58.315 56.9875 58.4421 57.0235C58.6952 57.0952 58.9861 57.0136 59.1634 56.8212C59.3406 56.6288 59.3958 56.335 59.3001 56.0926C59.2717 56.0205 59.2298 55.9516 59.1683 55.9037C59.1098 55.8582 59.0366 55.8338 58.9629 55.8241C58.6224 55.7791 58.3375 56.0142 58.0641 56.1757C57.6454 56.4232 57.4488 56.375 57.0106 56.1929Z" fill="#FEE8D0"/>
<mask id="mask0_537_958" style="mask-type:luminance" maskUnits="userSpaceOnUse" x="7" y="-1" width="78" height="77">
<path d="M84.9614 -0.720947H7.97217V75.3256H84.9614V-0.720947Z" fill="white"/>
</mask>
<g mask="url(#mask0_537_958)">
<path d="M62.7775 66.5677L10.7971 65.5332L38.3572 12.7699L62.7775 66.5677Z" fill="#FAF3DB" stroke="black" stroke-width="0.7"/>
<path d="M42 66.5L38.3792 11.9717L63.3256 66.9287L42 66.5Z" fill="#FAF3DB"/>
<mask id="path-78-inside-1_537_958" fill="white">
<path d="M63.3257 66.9287L63.2044 66.7349C59.9365 63.5819 56.8818 60.196 54.551 56.3139C52.477 52.865 50.9878 48.9408 48.2614 45.9675C48.2579 45.964 48.2543 45.957 48.2508 45.9534C47.0248 44.6146 45.2962 43.6533 44.0204 42.3604C42.9976 41.3246 41.6038 39.4523 40.7735 38.2615C39.3621 36.2323 39.0242 34.5602 38.2437 32.221C38.0797 31.7313 37.7233 30.8542 37.5132 29.9769C37.3528 30.4067 37.1996 30.7871 37.1068 31.0478C35.7989 34.7399 33.6429 38.1358 30.8239 40.8802C29.5231 42.1485 28.3381 43.6627 27.0837 44.9767C24.2968 47.9006 22.278 51.2197 20.1361 54.637C18.2204 59.1046 14.7334 62.0985 11.3514 65.2267C11.0663 65.4874 10.7879 65.862 10.4102 65.8197L10.2253 65.8715L10.3841 65.827C10.37 65.8235 10.2191 65.8715 10.2048 65.8715C10.2761 65.7658 10.407 65.5016 10.4749 65.3959L14.9617 56.8035L19.2168 48.6551L24.8868 37.8082L29.5767 28.8248L33.3828 21.5359L37.7947 13.092L38.3792 11.9717L43.0727 22.3078L47.2565 31.5235L55.2252 49.0816L58.6999 56.7369L61.0947 62.0142L63.2651 66.7983L63.3257 66.9287Z"/>
</mask>
<path d="M63.3257 66.9287L63.2044 66.7349C59.9365 63.5819 56.8818 60.196 54.551 56.3139C52.477 52.865 50.9878 48.9408 48.2614 45.9675C48.2579 45.964 48.2543 45.957 48.2508 45.9534C47.0248 44.6146 45.2962 43.6533 44.0204 42.3604C42.9976 41.3246 41.6038 39.4523 40.7735 38.2615C39.3621 36.2323 39.0242 34.5602 38.2437 32.221C38.0797 31.7313 37.7233 30.8542 37.5132 29.9769C37.3528 30.4067 37.1996 30.7871 37.1068 31.0478C35.7989 34.7399 33.6429 38.1358 30.8239 40.8802C29.5231 42.1485 28.3381 43.6627 27.0837 44.9767C24.2968 47.9006 22.278 51.2197 20.1361 54.637C18.2204 59.1046 14.7334 62.0985 11.3514 65.2267C11.0663 65.4874 10.7879 65.862 10.4102 65.8197L10.2253 65.8715L10.3841 65.827C10.37 65.8235 10.2191 65.8715 10.2048 65.8715C10.2761 65.7658 10.407 65.5016 10.4749 65.3959L14.9617 56.8035L19.2168 48.6551L24.8868 37.8082L29.5767 28.8248L33.3828 21.5359L37.7947 13.092L38.3792 11.9717L43.0727 22.3078L47.2565 31.5235L55.2252 49.0816L58.6999 56.7369L61.0947 62.0142L63.2651 66.7983L63.3257 66.9287Z" fill="black"/>
<path d="M63.3257 66.9287L62.4779 67.4591L64.2324 66.507L63.3257 66.9287ZM63.2044 66.7349L64.0522 66.2045L63.9871 66.1005L63.8988 66.0153L63.2044 66.7349ZM54.551 56.3139L55.4084 55.7991L55.408 55.7985L54.551 56.3139ZM48.2614 45.9675L48.9984 45.2917L48.9819 45.2736L48.9644 45.2563L48.2614 45.9675ZM48.2508 45.9534L47.5133 46.6287L47.5229 46.6392L47.5328 46.6494L48.2508 45.9534ZM44.0204 42.3604L44.7322 41.658L44.7319 41.6577L44.0204 42.3604ZM40.7735 38.2615L39.9525 38.8325L39.9532 38.8335L40.7735 38.2615ZM38.2437 32.221L39.1923 31.9045L39.1919 31.9035L38.2437 32.221ZM37.5132 29.9769L38.4856 29.7439L37.7219 26.5559L36.5762 29.6274L37.5132 29.9769ZM37.1068 31.0478L36.1647 30.7125L36.1642 30.7139L37.1068 31.0478ZM30.8239 40.8802L30.1263 40.1636L30.1257 40.1642L30.8239 40.8802ZM27.0837 44.9767L26.3604 44.2861L26.3598 44.2867L27.0837 44.9767ZM20.1361 54.637L19.2888 54.1059L19.2476 54.1716L19.217 54.2429L20.1361 54.637ZM11.3514 65.2267L12.0262 65.9648L12.0304 65.9609L11.3514 65.2267ZM10.4102 65.8197L10.5215 64.8259L10.328 64.8042L10.1405 64.8567L10.4102 65.8197ZM10.2253 65.8715L9.95556 64.9085L10.495 66.8344L10.2253 65.8715ZM10.3841 65.827L10.6539 66.7899L14.3075 65.7665L10.624 64.8562L10.3841 65.827ZM10.2048 65.8715L9.37557 65.3126L8.32503 66.8715H10.2048V65.8715ZM10.4749 65.3959L11.3164 65.9361L11.3406 65.8984L11.3613 65.8588L10.4749 65.3959ZM14.9617 56.8035L14.0753 56.3406L14.0753 56.3407L14.9617 56.8035ZM19.2168 48.6551L18.3306 48.1919L18.3304 48.1923L19.2168 48.6551ZM24.8868 37.8082L25.773 38.2714L25.7732 38.271L24.8868 37.8082ZM29.5767 28.8248L28.6903 28.3619L28.6902 28.362L29.5767 28.8248ZM33.3828 21.5359L32.4965 21.0728L32.4964 21.073L33.3828 21.5359ZM37.7947 13.092L38.681 13.5551L38.6813 13.5546L37.7947 13.092ZM38.3792 11.9717L39.2898 11.5582L38.4416 9.69032L37.4926 11.5091L38.3792 11.9717ZM43.0727 22.3078L43.9832 21.8944L43.9832 21.8943L43.0727 22.3078ZM47.2565 31.5235L48.1672 31.1103L48.1671 31.1102L47.2565 31.5235ZM55.2252 49.0816L54.3146 49.4949L54.3146 49.4949L55.2252 49.0816ZM58.6999 56.7369L59.6105 56.3237L59.6105 56.3236L58.6999 56.7369ZM61.0947 62.0142L62.0054 61.6011L62.0054 61.601L61.0947 62.0142ZM63.2651 66.7983L62.3544 67.2115L62.3583 67.22L63.2651 66.7983ZM64.1734 66.3982L64.0522 66.2045L62.3567 67.2653L62.4779 67.4591L64.1734 66.3982ZM63.8988 66.0153C60.66 62.8904 57.6749 59.5743 55.4084 55.7991L53.6937 56.8286C56.0887 60.8178 59.213 64.2734 62.5101 67.4546L63.8988 66.0153ZM55.408 55.7985C54.3823 54.0929 53.5358 52.3309 52.5289 50.4837C51.5445 48.6779 50.4445 46.8687 48.9984 45.2917L47.5244 46.6434C48.8047 48.0396 49.8125 49.6792 50.7728 51.441C51.7106 53.1614 52.6457 55.086 53.694 56.8292L55.408 55.7985ZM48.9644 45.2563C48.9789 45.2706 48.9914 45.2839 49.002 45.2956C49.0127 45.3074 49.0219 45.3181 49.0297 45.3275C49.045 45.346 49.0569 45.3617 49.0648 45.3724C49.0727 45.3833 49.0788 45.392 49.082 45.3968C49.0851 45.4013 49.0875 45.4049 49.087 45.4041C49.087 45.404 49.087 45.404 49.0869 45.4039C49.0868 45.4038 49.0867 45.4036 49.0866 45.4035C49.0863 45.4031 49.086 45.4025 49.0855 45.4018C49.0846 45.4005 49.0831 45.3983 49.0813 45.3957C49.0779 45.3906 49.0717 45.3817 49.0638 45.3708C49.056 45.3599 49.0445 45.3444 49.0299 45.3264C49.0225 45.3172 49.0138 45.3067 49.0038 45.2953C48.9939 45.284 48.9822 45.2711 48.9688 45.2573L47.5328 46.6494C47.5074 46.6232 47.4878 46.6001 47.4743 46.5834C47.4606 46.5664 47.45 46.5521 47.443 46.5425C47.436 46.5328 47.4308 46.5251 47.4282 46.5214C47.426 46.5181 47.4239 46.515 47.4252 46.5169C47.4255 46.5174 47.4288 46.5223 47.4328 46.5281C47.4369 46.5342 47.4439 46.5442 47.4527 46.5562C47.4615 46.5682 47.4743 46.5851 47.4905 46.6046C47.5064 46.6238 47.5292 46.6498 47.5584 46.6787L48.9644 45.2563ZM48.9883 45.278C48.3071 44.5342 47.4998 43.9095 46.7615 43.3452C45.9986 42.7621 45.3105 42.2441 44.7322 41.658L43.3086 43.0627C44.0061 43.7696 44.8203 44.3788 45.5471 44.9342C46.2985 45.5085 46.9685 46.0339 47.5133 46.6287L48.9883 45.278ZM44.7319 41.6577C43.7742 40.6879 42.4222 38.8775 41.5937 37.6895L39.9532 38.8335C40.7855 40.027 42.2209 41.9613 43.3089 43.063L44.7319 41.6577ZM41.5944 37.6906C40.2895 35.8143 40.0065 34.3448 39.1923 31.9045L37.2951 32.5376C38.0419 34.7757 38.4348 36.6504 39.9525 38.8325L41.5944 37.6906ZM39.1919 31.9035C38.9985 31.3259 38.6826 30.5662 38.4856 29.7439L36.5407 30.2099C36.764 31.1422 37.1609 32.1367 37.2954 32.5386L39.1919 31.9035ZM36.5762 29.6274C36.4334 30.0103 36.2573 30.4524 36.1647 30.7125L38.0489 31.3831C38.1419 31.1218 38.2723 30.8031 38.4501 30.3264L36.5762 29.6274ZM36.1642 30.7139C34.9067 34.2636 32.8336 37.528 30.1263 40.1636L31.5214 41.5967C34.4521 38.7436 36.691 35.2161 38.0494 31.3817L36.1642 30.7139ZM30.1257 40.1642C29.4451 40.8279 28.8013 41.5493 28.1849 42.2516C27.5604 42.963 26.9691 43.6485 26.3604 44.2861L27.807 45.6672C28.4527 44.9909 29.0811 44.2623 29.6879 43.571C30.3028 42.8706 30.902 42.2007 31.522 41.5961L30.1257 40.1642ZM26.3598 44.2867C23.4891 47.2987 21.4154 50.713 19.2888 54.1059L20.9834 55.1681C23.1405 51.7265 25.1045 48.5026 27.8075 45.6666L26.3598 44.2867ZM19.217 54.2429C17.4028 58.4739 14.1049 61.3176 10.6724 64.4926L12.0304 65.9609C15.3618 62.8794 19.038 59.7352 21.0552 55.0311L19.217 54.2429ZM10.6766 64.4888C10.5867 64.5709 10.4902 64.6689 10.4349 64.7234C10.3668 64.7906 10.3255 64.8284 10.294 64.8534C10.2631 64.878 10.2694 64.8672 10.3073 64.8522C10.3539 64.8337 10.4307 64.8157 10.5215 64.8259L10.299 66.8135C10.8744 66.8779 11.3022 66.6065 11.537 66.4202C11.658 66.3243 11.7633 66.2223 11.8394 66.1472C11.9283 66.0595 11.9735 66.0129 12.0262 65.9647L10.6766 64.4888ZM10.1405 64.8567L9.95556 64.9085L10.495 66.8344L10.6799 66.7826L10.1405 64.8567ZM10.495 66.8344L10.6539 66.7899L10.1144 64.8641L9.95558 64.9085L10.495 66.8344ZM10.624 64.8562C10.5209 64.8307 10.4368 64.8276 10.3992 64.827C10.3546 64.8262 10.3183 64.8286 10.2958 64.8305C10.2513 64.8342 10.2158 64.8402 10.1982 64.8433C10.1611 64.8499 10.1297 64.8574 10.1142 64.8612C10.08 64.8696 10.045 64.8793 10.0248 64.885C9.99662 64.8929 9.98625 64.8959 9.97496 64.8989C9.96964 64.9004 9.97519 64.8988 9.986 64.8962C9.99091 64.8951 10.0062 64.8915 10.027 64.8876C10.0376 64.8857 10.0559 64.8825 10.0791 64.8795C10.0974 64.8771 10.1443 64.8715 10.2048 64.8715V66.8715C10.2384 66.8715 10.2661 66.8698 10.2851 66.8683C10.3047 66.8667 10.3215 66.8648 10.3341 66.8632C10.3587 66.86 10.3786 66.8565 10.3911 66.8542C10.4157 66.8497 10.4357 66.8451 10.4461 66.8426C10.468 66.8374 10.4878 66.8321 10.4988 66.8291C10.5116 66.8257 10.5244 66.8221 10.5347 66.8192C10.547 66.8157 10.554 66.8137 10.5643 66.8109C10.5733 66.8083 10.5802 66.8064 10.5856 66.805C10.5915 66.8034 10.5925 66.8032 10.5901 66.8037C10.5888 66.8041 10.5848 66.805 10.579 66.8063C10.5737 66.8075 10.5626 66.8099 10.5477 66.8125C10.54 66.8139 10.5294 66.8156 10.5167 66.8174C10.5043 66.8192 10.4862 66.8215 10.4641 66.8234C10.4435 66.8251 10.4088 66.8274 10.3656 66.8267C10.3433 66.8263 10.314 66.8251 10.2797 66.8215C10.2463 66.818 10.1993 66.8114 10.1442 66.7978L10.624 64.8562ZM11.0341 66.4303C11.0747 66.37 11.112 66.3056 11.1379 66.2598C11.1663 66.2097 11.1954 66.1561 11.2203 66.1102C11.2469 66.0611 11.2685 66.021 11.2883 65.9855C11.3099 65.9466 11.3178 65.9339 11.3164 65.9361L9.63332 64.8557C9.598 64.9107 9.56411 64.9707 9.53986 65.0144C9.51372 65.0614 9.48547 65.1138 9.46195 65.1572C9.43669 65.2038 9.41549 65.2426 9.39714 65.2751C9.37633 65.3119 9.37054 65.3201 9.37557 65.3126L11.0341 66.4303ZM11.3613 65.8588L15.8481 57.2664L14.0753 56.3407L9.58844 64.933L11.3613 65.8588ZM15.8481 57.2664L20.1032 49.118L18.3304 48.1923L14.0753 56.3406L15.8481 57.2664ZM20.103 49.1184L25.773 38.2714L24.0006 37.3449L18.3306 48.1919L20.103 49.1184ZM25.7732 38.271L30.4632 29.2876L28.6902 28.362L24.0003 37.3454L25.7732 38.271ZM30.4631 29.2877L34.2693 21.9988L32.4964 21.073L28.6903 28.3619L30.4631 29.2877ZM34.2691 21.999L38.681 13.5551L36.9084 12.6289L32.4965 21.0728L34.2691 21.999ZM38.6813 13.5546L39.2658 12.4342L37.4926 11.5091L36.9081 12.6294L38.6813 13.5546ZM37.4687 12.3851L42.1622 22.7212L43.9832 21.8943L39.2898 11.5582L37.4687 12.3851ZM42.1621 22.7212L46.346 31.9369L48.1671 31.1102L43.9832 21.8944L42.1621 22.7212ZM46.3459 31.9368L54.3146 49.4949L56.1358 48.6683L48.1672 31.1103L46.3459 31.9368ZM54.3146 49.4949L57.7893 57.1502L59.6105 56.3236L56.1358 48.6683L54.3146 49.4949ZM57.7893 57.1502L60.1841 62.4275L62.0054 61.601L59.6105 56.3237L57.7893 57.1502ZM60.1841 62.4274L62.3544 67.2115L64.1757 66.3852L62.0054 61.6011L60.1841 62.4274ZM62.3583 67.22L62.4189 67.3504L64.2324 66.507L64.1718 66.3766L62.3583 67.22Z" fill="black" mask="url(#path-78-inside-1_537_958)"/>
<path d="M60.8671 62.1175L62.475 65.6618C59.6 62.747 57.0783 59.4932 54.9761 55.9918L54.976 55.9916C54.4598 55.1331 53.9664 54.2564 53.4726 53.375C53.4364 53.3104 53.4002 53.2457 53.364 53.181C52.9069 52.3647 52.448 51.5453 51.9715 50.7385C50.9452 49.0008 49.8311 47.3115 48.4551 45.8088C48.4543 45.8077 48.4533 45.8064 48.4523 45.8051C48.4507 45.8029 48.4488 45.8004 48.4466 45.7978C48.4435 45.7939 48.4393 45.7889 48.4341 45.7834C47.814 45.1064 47.1486 44.4772 46.4831 43.8594C46.3835 43.767 46.284 43.6749 46.1847 43.5829C45.6172 43.0576 45.0544 42.5366 44.5157 41.9907L44.5156 41.9906C43.5029 40.9651 42.5784 39.8523 41.7561 38.6732C40.3584 36.6636 39.2539 34.4585 38.4809 32.1419L38.4808 32.1417C38.4349 32.0047 38.3766 31.8438 38.3117 31.6649C38.1341 31.1751 37.9078 30.5511 37.7563 29.9187L37.5654 29.1217L37.279 29.8895C37.2085 30.0784 37.1375 30.2627 37.0722 30.432C36.9929 30.6376 36.9222 30.8211 36.8713 30.964L36.8712 30.9643C35.5759 34.6208 33.4406 37.9838 30.6495 40.701L30.6494 40.7012C30.098 41.2388 29.5229 41.7514 28.943 42.2683C28.8441 42.3564 28.7451 42.4446 28.646 42.5332C27.9681 43.139 27.2898 43.7558 26.6552 44.4206L26.6551 44.4207C24.5923 46.585 23.074 49.1818 21.5733 51.7486C21.0297 52.6784 20.4884 53.6043 19.9243 54.5042L19.9242 54.5043C17.4987 58.3778 14.5481 61.9292 11.1825 65.0425C11.0503 65.1633 10.9152 65.2759 10.7774 65.3567L15.1833 56.9193L19.4384 48.771L19.4384 48.7709L25.1084 37.924L25.1084 37.9239L29.7983 28.9405L29.7983 28.9405L33.6044 21.6517L33.6045 21.6516L38.0163 13.2078L38.0164 13.2076L38.3637 12.542L42.8451 22.4111L47.0289 31.6269L47.0289 31.6269L54.9976 49.1849L55.2252 49.0816L54.9976 49.1849L58.4723 56.8402L60.8671 62.1175L60.8671 62.1175Z" fill="#B47250" stroke="black" stroke-width="0.5"/>
<path d="M35.704 2.83217L35.1506 2.98975L38.0698 13.0073L38.6232 12.8498L35.704 2.83217Z" fill="#B47250"/>
<path d="M38.1857 1.82153L37.6104 1.84607L38.0649 12.2619L38.6403 12.2374L38.1857 1.82153Z" fill="#B47250"/>
<path d="M40.9268 2.40584L38.1257 12.4568L38.6809 12.608L41.482 2.55704L40.9268 2.40584Z" fill="#B47250"/>
<path d="M39.2208 11.4604H37.4011C37.3302 11.4604 37.2722 11.4031 37.2722 11.333V10.7877C37.2722 10.7176 37.3302 10.6603 37.4011 10.6603H39.2208C39.2918 10.6603 39.3498 10.7176 39.3498 10.7877V11.333C39.3499 11.4031 39.2918 11.4604 39.2208 11.4604Z" fill="#FEE8D0"/>
<path d="M39.0755 11.5071H37.5465C37.3691 11.5071 37.2246 11.3646 37.2246 11.1893V10.9312C37.2246 10.7558 37.3691 10.6133 37.5465 10.6133H39.0755C39.2529 10.6133 39.3974 10.7558 39.3974 10.9312V11.1893C39.3972 11.3648 39.2529 11.5071 39.0755 11.5071ZM37.5465 10.707C37.4214 10.707 37.3195 10.8078 37.3195 10.9313V11.1894C37.3195 11.3129 37.4214 11.4137 37.5465 11.4137H39.0755C39.2006 11.4137 39.3025 11.3129 39.3025 11.1894V10.9313C39.3025 10.8078 39.2008 10.707 39.0755 10.707H37.5465Z" fill="#1E1A19"/>
<path d="M39.2208 12.2608H37.4011C37.3302 12.2608 37.2722 12.2034 37.2722 12.1333V11.5879C37.2722 11.5178 37.3302 11.4604 37.4011 11.4604H39.2208C39.2918 11.4604 39.3498 11.5178 39.3498 11.5879V12.1333C39.3499 12.2034 39.2918 12.2608 39.2208 12.2608Z" fill="#FEE8D0"/>
<path d="M39.0755 12.3074H37.5465C37.3691 12.3074 37.2246 12.1649 37.2246 11.9896V11.7314C37.2246 11.5561 37.3691 11.4136 37.5465 11.4136H39.0755C39.2529 11.4136 39.3974 11.5561 39.3974 11.7314V11.9896C39.3972 12.1649 39.2529 12.3074 39.0755 12.3074ZM37.5465 11.5071C37.4214 11.5071 37.3195 11.6079 37.3195 11.7314V11.9896C37.3195 12.1131 37.4214 12.2139 37.5465 12.2139H39.0755C39.2006 12.2139 39.3025 12.1131 39.3025 11.9896V11.7314C39.3025 11.6079 39.2008 11.5071 39.0755 11.5071H37.5465Z" fill="#1E1A19"/>
<path d="M39.2208 13.0082H37.4011C37.3302 13.0082 37.2722 12.9509 37.2722 12.8807V12.3353C37.2722 12.2652 37.3302 12.2079 37.4011 12.2079H39.2208C39.2918 12.2079 39.3498 12.2652 39.3498 12.3353V12.8807C39.3499 12.9507 39.2918 13.0082 39.2208 13.0082Z" fill="#FEE8D0"/>
<path d="M39.0755 13.0549H37.5465C37.3691 13.0549 37.2246 12.9124 37.2246 12.737V12.4789C37.2246 12.3035 37.3691 12.161 37.5465 12.161H39.0755C39.2529 12.161 39.3974 12.3035 39.3974 12.4789V12.737C39.3972 12.9124 39.2529 13.0549 39.0755 13.0549ZM37.5465 12.2547C37.4214 12.2547 37.3195 12.3555 37.3195 12.479V12.7371C37.3195 12.8606 37.4214 12.9615 37.5465 12.9615H39.0755C39.2006 12.9615 39.3025 12.8606 39.3025 12.7371V12.479C39.3025 12.3555 39.2008 12.2547 39.0755 12.2547H37.5465Z" fill="#1E1A19"/>
<path d="M62.4161 66.0473C62.3999 66.0473 62.3842 66.0382 62.377 66.0225L38.2432 14.0454C38.2332 14.0241 38.2428 13.9987 38.2643 13.9889C38.2848 13.9798 38.3112 13.9886 38.3212 14.0099L62.4552 65.9871C62.4652 66.0084 62.4556 66.0338 62.4341 66.0435C62.4284 66.0461 62.4222 66.0473 62.4161 66.0473Z" stroke="#1E1A19" stroke-width="0.8" stroke-miterlimit="10"/>
<path d="M11.2449 64.8791C11.2381 64.8791 11.2313 64.8775 11.2249 64.8742C11.2039 64.8635 11.1958 64.8375 11.2069 64.8168L38.2441 14.008C38.2553 13.9877 38.2816 13.9796 38.3022 13.9904C38.3232 14.001 38.3312 14.0271 38.3202 14.0477L11.2829 64.8564C11.2752 64.8708 11.2602 64.8791 11.2449 64.8791Z" stroke="#1E1A19" stroke-width="0.8" stroke-miterlimit="10"/>
</g>
<path d="M31.9335 49.0494L31.9335 49.0495L31.9333 49.0496L31.9332 49.0496C31.9332 49.0496 31.9332 49.0496 31.9334 49.0501L32.2335 49.44L32.2334 49.44L32.2332 49.4403L32.232 49.4416L32.2272 49.4468L32.2082 49.4677C32.1915 49.4862 32.1669 49.5135 32.1354 49.5486C32.0726 49.6187 31.9827 49.72 31.8749 49.844C31.6591 50.0921 31.3727 50.43 31.0886 50.7904C30.8036 51.152 30.525 51.5311 30.3225 51.8626C30.2211 52.0286 30.1423 52.177 30.0911 52.3015C30.0373 52.4326 30.0257 52.51 30.0283 52.5443L30.0284 52.5446C30.0319 52.5915 30.0443 52.6052 30.0467 52.6079L30.0467 52.6079C30.0506 52.6122 30.064 52.6244 30.1031 52.6339C30.1913 52.6555 30.3353 52.6461 30.5172 52.6035C30.6912 52.5628 30.8687 52.4995 31.0074 52.4436C31.1267 52.3955 31.2079 52.3568 31.228 52.3473C31.2319 52.3454 31.2335 52.3447 31.2327 52.3451L31.5528 52.7154C31.5465 52.7237 31.5277 52.7476 31.4981 52.7854C31.2995 53.0384 30.6143 53.9113 29.9282 54.8525C29.5343 55.393 29.1435 55.9513 28.8477 56.4225C28.6997 56.6583 28.5778 56.8684 28.4917 57.0413C28.4008 57.2237 28.3651 57.335 28.3607 57.3843L28.3607 57.3846C28.3545 57.4539 28.3603 57.4885 28.3656 57.5039C28.3727 57.5053 28.3851 57.5068 28.4045 57.5063C28.44 57.5053 28.4863 57.4977 28.542 57.4822C28.654 57.451 28.7749 57.3962 28.8725 57.3457C28.9201 57.321 28.96 57.2984 28.9876 57.2823C29.0014 57.2742 29.0121 57.2678 29.019 57.2635L29.0266 57.2589L29.0281 57.2579L29.0282 57.2579L29.0283 57.2578L29.0283 57.2578L29.4791 56.972L29.4099 57.5015L28.9111 61.3174L28.8594 61.7127L28.5299 61.4965C28.5281 61.4955 28.5247 61.4937 28.5195 61.4913C28.5069 61.4853 28.4846 61.4761 28.4538 61.4679C28.3929 61.4517 28.2961 61.4386 28.1686 61.4648C27.917 61.5164 27.4927 61.7333 26.9772 62.5184L26.9771 62.5186C26.601 63.0906 26.4425 63.8298 26.4049 64.5195C26.3705 65.1521 26.4392 65.7147 26.5139 66.0228L26.7397 66.1687L26.5209 66.0511C26.7397 66.1687 26.7396 66.1688 26.7396 66.1688L26.7396 66.1689L26.7394 66.1691L26.7392 66.1696L26.7384 66.171L26.7361 66.1752L26.7287 66.1883C26.7226 66.1989 26.7139 66.2135 26.7033 66.2303C26.6844 66.2602 26.6546 66.3043 26.6182 66.3454C26.5648 66.426 26.4939 66.5388 26.4148 66.6794C26.2403 66.9895 26.0274 67.4322 25.8734 67.9621C25.5659 69.0198 25.4946 70.4125 26.4165 71.8084L26.4167 71.8086C26.8557 72.4749 27.6801 72.9637 28.7738 73.299C29.8621 73.6327 31.1815 73.8034 32.5611 73.8606C35.3199 73.9748 38.2735 73.6332 39.9973 73.2746C41.2783 73.0059 41.8007 72.4518 42.0016 71.922V71.9175L42.0153 71.8779C42.1641 71.4463 42.1237 70.9908 42.0376 70.6299C41.995 70.4515 41.9424 70.3015 41.9008 70.1967C41.88 70.1444 41.8621 70.1038 41.8497 70.0768C41.8435 70.0634 41.8387 70.0534 41.8357 70.0471L41.8324 70.0406L41.8321 70.0398L41.832 70.0397L41.832 70.0396L41.8319 70.0395L41.8319 70.0394L41.6151 69.6179L42.0858 69.6775L42.0544 69.9255L42.0858 69.6775L42.0858 69.6775L42.086 69.6775L42.0866 69.6776L42.089 69.6779L42.0986 69.6791L42.1361 69.6838L42.2785 69.7018L42.7839 69.7657C42.8259 69.7699 42.8684 69.7754 42.9084 69.7807C42.9165 69.7818 42.9245 69.7828 42.9324 69.7838C42.9329 69.7839 42.9334 69.784 42.9339 69.784L42.9388 69.7846C43.1071 69.8043 43.2918 69.8259 43.4894 69.8476L43.4956 69.8483L43.4956 69.8484L43.5123 69.8507C43.5564 69.8567 43.5923 69.8616 43.63 69.8649L43.6386 69.8657L43.6386 69.8658C43.7457 69.8792 43.8535 69.8921 43.9584 69.903L43.9664 69.9038L43.9664 69.9039C44.0087 69.9097 44.0524 69.9136 44.1042 69.9181L44.1105 69.9186L44.1105 69.9187C44.3043 69.9403 44.501 69.9605 44.6958 69.9806C44.7379 69.9849 44.78 69.9893 44.8219 69.9936C44.868 69.9977 44.9175 70.0023 44.9682 70.0093C45.0267 70.0139 45.0916 70.0196 45.1541 70.0251C45.206 70.0296 45.2563 70.034 45.2997 70.0375L45.302 70.0377L45.45 70.0509L45.4505 70.051C45.6411 70.0684 45.8171 70.0793 45.975 70.088L45.9834 70.0885L45.9834 70.0886C46.019 70.0918 46.0556 70.0936 46.0944 70.0955C46.1021 70.0959 46.11 70.0963 46.1179 70.0967C46.2284 70.1009 46.3208 70.1008 46.393 70.0987C46.8625 70.0848 47.1916 69.7211 47.3674 69.4592C47.3936 69.4174 47.415 69.3805 47.4309 69.352L47.4577 69.2997C47.4633 69.2887 47.4684 69.2794 47.4728 69.2721C47.4729 69.2719 47.4729 69.2718 47.473 69.2717L47.5266 69.1656L47.5776 69.1657C48.8889 68.1462 49.6153 67.013 49.981 66.029C50.3538 65.0259 50.3465 64.1942 50.2212 63.794L50.2212 63.7939C50.0998 63.4055 49.8162 63.1557 49.5436 62.9987C49.4083 62.9208 49.2806 62.8688 49.187 62.8364C49.1404 62.8202 49.1028 62.8092 49.0778 62.8023C49.0713 62.8006 49.0657 62.7991 49.0609 62.7979C49.0566 62.7968 49.053 62.7959 49.0502 62.7952L49.0445 62.7938L49.0444 62.7938L49.0443 62.7938L49.0441 62.7938L49.0439 62.7937L49.0437 62.7937L48.851 62.7521L48.8472 62.5543C48.8396 62.1646 48.8356 61.7834 48.8316 61.4061C48.8225 60.5401 48.8136 59.6944 48.7623 58.8129L49.0119 58.7984L49.2614 58.7838C49.2623 58.7986 49.2636 58.811 49.265 58.8214C49.286 58.812 49.3112 58.798 49.339 58.7787C49.3854 58.7465 49.4223 58.7108 49.4416 58.6867L49.4423 58.6859C49.4419 58.6863 49.4421 58.6861 49.4426 58.6851C49.4452 58.6802 49.4575 58.6578 49.4738 58.6057C49.4913 58.5496 49.5075 58.4795 49.5225 58.4019C49.5374 58.3251 49.55 58.2461 49.5615 58.1725C49.5629 58.1639 49.5642 58.1552 49.5656 58.1466C49.5751 58.0857 49.5844 58.0259 49.5932 57.9807C49.7022 57.3851 49.6003 56.7652 49.4871 56.1065L49.4864 56.1028L49.4865 56.1028C49.474 56.023 49.4771 55.9407 49.4792 55.8852C49.4794 55.8807 49.4795 55.8763 49.4797 55.8722C49.4821 55.8056 49.4818 55.7701 49.4767 55.7434L49.4104 55.3972L49.7591 55.4492C49.8532 55.4632 49.9426 55.4917 50.0127 55.5153C50.0307 55.5213 50.0471 55.5269 50.0622 55.5321C50.0924 55.5424 50.1176 55.551 50.1403 55.558C50.1435 55.5214 50.1453 55.4745 50.1449 55.4174C50.1442 55.3135 50.1363 55.1925 50.1237 55.0682C50.0982 54.8171 50.0557 54.5739 50.0237 54.4557C49.9842 54.3144 49.9477 54.1783 49.9122 54.0461C49.6895 53.2159 49.5089 52.5429 48.9111 51.756L49.2594 51.4042C49.2446 51.3932 49.2221 51.3905 49.2108 51.3928C49.2091 51.3932 49.2257 51.3891 49.2588 51.3622C49.325 51.3082 49.3946 51.2138 49.4358 51.1315C49.4982 51.0051 49.488 50.8355 49.4491 50.5989C49.3099 49.8369 49.06 49.0961 48.7081 48.4026L48.4095 47.814L49.0231 48.0571C49.0366 48.0624 49.0591 48.0652 49.0955 48.0458C49.1342 48.0251 49.1726 47.9861 49.1956 47.9396L49.1993 47.9321L49.2035 47.9248C49.2055 47.9213 49.2096 47.9129 49.2154 47.8918C49.2466 47.7531 49.1977 47.5883 49.1044 47.3677L49.1031 47.3645L49.1031 47.3645C49.0876 47.3264 49.0697 47.287 49.0508 47.2476L49.0484 47.2426L49.0485 47.2425C48.8867 46.8842 48.6898 46.5354 48.4644 46.2032C48.1109 45.6843 47.6907 45.2029 47.2312 44.7842C47.0337 44.7413 46.8945 44.6075 46.8468 44.5617C46.8421 44.5573 46.8383 44.5536 46.8355 44.551L46.6992 44.4266L46.7779 44.2597C47.1722 43.4238 47.2651 42.4201 47.1398 41.4763C47.1354 41.4716 47.1311 41.4665 47.1269 41.4612C47.114 41.4451 47.1038 41.4288 47.0958 41.4126C46.9562 41.3695 46.8239 41.3751 46.6341 41.4135L46.6327 41.4138C45.7395 41.5896 44.8345 41.9612 44.1497 42.5229L43.5118 43.0461L43.752 42.2568C43.7877 42.1394 43.804 42.0709 43.7983 42.0127L43.7974 42.0025L43.7976 42.0025C43.7963 41.9804 43.7899 41.9604 43.7818 41.9464C43.7774 41.9389 43.7737 41.9349 43.7715 41.933C43.7663 41.9319 43.7559 41.9307 43.7377 41.9332C43.7107 41.9368 43.6766 41.9471 43.6373 41.9644L43.6351 41.9654C43.4221 42.0572 43.1897 42.2056 43.0862 42.3481L42.6703 42.9202L42.6343 42.2138C42.6245 42.0219 42.6016 41.9379 42.5577 41.8975L42.5568 41.8967C42.5397 41.8807 42.507 41.8638 42.442 41.8621C42.3762 41.8604 42.2961 41.8754 42.2149 41.9033C41.8573 42.0277 41.5484 42.2795 41.2108 42.5613L40.9424 42.7855L40.8172 42.4589C40.7735 42.345 40.7321 42.2463 40.6808 42.1672C40.6308 42.09 40.5829 42.0496 40.5343 42.0308L40.5332 42.0303C40.466 42.0039 40.3744 42.0063 40.2455 42.0381L40.2448 42.0383C39.8794 42.1275 39.5179 42.3167 39.3028 42.5788L39.1415 42.7753L38.9478 42.6108C38.0148 41.8189 37.03 41.4074 36.2158 41.2077C35.4592 41.0221 34.8663 41.023 34.6095 41.0608C34.6067 41.0816 34.6046 41.1143 34.6069 41.1622C34.6113 41.2533 34.63 41.371 34.6626 41.5116C34.7275 41.792 34.8401 42.1325 34.9668 42.4762C35.093 42.8183 35.2304 43.1561 35.3428 43.43C35.3552 43.4602 35.3674 43.49 35.3794 43.5191C35.4709 43.7418 35.5479 43.929 35.5725 44.0141C35.6065 44.13 35.551 44.2232 35.5036 44.268C35.4659 44.3035 35.4269 44.3182 35.4148 44.3227C35.3849 44.3336 35.3579 44.3372 35.3484 44.3385C35.3232 44.3418 35.2955 44.343 35.2735 44.3436C35.2262 44.3448 35.1662 44.3439 35.1103 44.3425C35.0755 44.3416 35.0408 44.3405 35.0094 44.3393C34.9761 44.3798 34.9331 44.4322 34.8816 44.4952C34.7512 44.6548 34.5668 44.8817 34.3511 45.1507C33.9194 45.6892 33.3634 46.3949 32.864 47.0672L32.8637 47.0676C32.5625 47.4714 32.2834 47.859 32.0655 48.1897C31.9847 48.3133 31.8993 48.4374 31.8186 48.5541C31.8106 48.5657 31.8026 48.5773 31.7947 48.5887C31.7223 48.6934 31.6549 48.7909 31.5964 48.8793C31.5387 48.9665 31.4939 49.0386 31.4636 49.0948C31.4646 49.0949 31.4656 49.0951 31.4666 49.0952C31.5031 49.0998 31.5459 49.1001 31.5956 49.0984C31.6052 49.0981 31.6167 49.0976 31.6293 49.097C31.6665 49.0954 31.7131 49.0933 31.7471 49.0944C31.7882 49.0954 31.8349 49.0857 31.8767 49.0719C31.8965 49.0654 31.9125 49.0588 31.9229 49.0543L31.9335 49.0494ZM31.9335 49.0494L31.9338 49.0493L31.9343 49.049L31.9348 49.0488C31.9348 49.0488 31.9344 49.049 31.9335 49.0494ZM26.2938 66.1687C26.3205 66.2628 26.3732 66.2401 26.4209 66.1906C26.375 66.2592 26.3159 66.3518 26.2492 66.4656L26.2938 66.1687ZM26.2938 66.1687C26.2804 66.1219 26.267 66.0681 26.2541 66.0081L26.2938 66.1687ZM26.5117 66.0606C26.5121 66.0611 26.5125 66.0616 26.5129 66.0621C26.5206 66.0722 26.5256 66.081 26.5285 66.0868C26.5318 66.0933 26.5335 66.0979 26.5341 66.0996C26.5342 66.0999 26.5342 66.1002 26.5343 66.1003M26.5117 66.0606L26.5343 66.1004L26.5343 66.1003M26.5117 66.0606C26.5079 66.0558 26.5035 66.0507 26.4984 66.0455C26.4932 66.0401 26.4873 66.0347 26.4807 66.0294L26.5117 66.0606ZM26.5343 66.1003L26.5341 66.0996C26.5297 66.0845 26.5254 66.0684 26.521 66.0515L26.5343 66.1003ZM28.6632 61.285L28.4153 61.2526L28.4212 61.2072C28.1011 61.1646 27.492 61.2789 26.7683 62.3812L28.9141 57.4367L29.162 57.4691C29.2958 57.6802 29.2958 57.6802 29.2957 57.6803L29.2956 57.6804L29.2952 57.6806L29.2942 57.6812L29.2909 57.6833L29.2797 57.6902C29.2702 57.696 29.2568 57.7041 29.24 57.7139C29.2103 57.7313 29.1696 57.7543 29.1214 57.7797L28.6974 61.0234C28.7101 61.0287 28.7217 61.0338 28.7322 61.0387C28.7504 61.0473 28.7653 61.0552 28.7767 61.0617C28.7824 61.0649 28.7872 61.0677 28.7912 61.0701L28.7964 61.0734L28.7986 61.0748L28.7995 61.0754L28.7999 61.0757C28.8001 61.0758 28.8003 61.0759 28.6632 61.285ZM28.6632 61.285L28.5261 61.494L28.5264 61.4942C28.5263 61.4941 28.5261 61.494 28.6632 61.285ZM47.4873 69.2576C47.4873 69.2576 47.4873 69.2576 47.4873 69.2576L47.6803 69.3862L47.4873 69.2576ZM28.3719 57.5144C28.3715 57.5149 28.3695 57.5132 28.3671 57.5077C28.3711 57.5112 28.3723 57.5139 28.3719 57.5144ZM31.4234 49.0954L31.1832 49.1644L31.4234 49.0954Z" fill="black" stroke="black" stroke-width="0.5"/>
<path d="M31.8708 49.0478L31.8707 49.0479L31.8705 49.048L31.8705 49.048C31.8704 49.048 31.8704 49.048 31.8706 49.0484L32.1814 49.4258L32.1815 49.4259L32.1815 49.4259L32.1814 49.4259L32.1812 49.4262L32.1803 49.4273L32.1765 49.4321L32.1612 49.4513C32.1478 49.4683 32.128 49.4934 32.1026 49.5258C32.052 49.5905 31.9796 49.6841 31.8928 49.7988C31.719 50.0283 31.4884 50.3415 31.2601 50.6772C31.0311 51.0139 30.8078 51.3682 30.6464 51.6808C30.5656 51.8373 30.5029 51.9783 30.4626 52.0981C30.4207 52.2224 30.4099 52.3035 30.4133 52.3477L30.4134 52.3481C30.4221 52.4621 30.4588 52.481 30.4729 52.4882L30.4733 52.4884C30.5093 52.507 30.5819 52.5182 30.6981 52.5007C30.8078 52.4841 30.9232 52.4471 31.0173 52.4105C31.1015 52.3777 31.1589 52.349 31.1686 52.3442C31.1698 52.3436 31.1703 52.3433 31.17 52.3435L31.4901 52.7138C31.4459 52.7716 30.7177 53.726 29.9924 54.7651C29.6294 55.2851 29.2696 55.8229 28.9969 56.2785C28.8604 56.5066 28.7481 56.7104 28.6685 56.8788C28.5849 57.0556 28.5506 57.1667 28.5459 57.2194L28.5459 57.2197C28.5357 57.3327 28.5502 57.3804 28.5573 57.396C28.5665 57.3979 28.588 57.4 28.6293 57.3932C28.7006 57.3813 28.7834 57.3495 28.8557 57.315C28.8902 57.2985 28.919 57.2829 28.939 57.2717C28.9489 57.2661 28.9564 57.2617 28.9612 57.2588L28.9661 57.2559L28.9664 57.2557L28.9666 57.2556L28.9667 57.2555L28.9668 57.2554L28.9669 57.2554L29.3766 56.9985L29.3488 57.4818L29.1113 61.6097L29.0838 62.0878L28.7088 61.7931L28.7086 61.793L28.7086 61.7929L28.7085 61.7928L28.7081 61.7926L28.7043 61.7898C28.6995 61.7864 28.6911 61.7806 28.6793 61.7731C28.6557 61.7582 28.6191 61.7369 28.5716 61.7152C28.4759 61.6713 28.341 61.6275 28.1811 61.6242C27.8811 61.6181 27.4155 61.7539 26.9145 62.5168L26.9144 62.517C26.1576 63.6678 26.4165 65.0526 26.5939 65.6695L26.5941 65.6703C26.6205 65.7632 26.6446 65.8356 26.6618 65.884C26.6704 65.9081 26.6772 65.9262 26.6817 65.9378L26.6866 65.9502L26.6875 65.9526L26.6875 65.9526L26.6875 65.9527L26.6875 65.9527L26.6876 65.9527L26.6876 65.9529L26.6877 65.953L26.7431 66.0861L26.6553 66.2006L26.6553 66.2007L26.6552 66.2007L26.6551 66.2008L26.6546 66.2016L26.6509 66.2065L26.6347 66.2287C26.6201 66.2489 26.5984 66.2797 26.571 66.3205C26.5162 66.402 26.4391 66.523 26.352 66.6778C26.1775 66.988 25.9647 67.4306 25.8106 67.9606C25.5031 69.0183 25.4318 70.4109 26.3538 71.8068L26.3539 71.8071C26.7929 72.4733 27.6173 72.9621 28.711 73.2974C29.7993 73.6311 31.1187 73.8019 32.4983 73.859C35.2572 73.9733 38.2107 73.6316 39.9346 73.273C41.2156 73.0044 41.738 72.4503 41.9389 71.9204V71.916L41.9525 71.8764C42.1013 71.4447 42.061 70.9892 41.9748 70.6284C41.9322 70.4499 41.8797 70.2999 41.8381 70.1951C41.8173 70.1428 41.7994 70.1022 41.787 70.0753C41.7808 70.0618 41.776 70.0518 41.7729 70.0456L41.7697 70.039L41.7693 70.0382L41.7693 70.0381L41.7692 70.038L41.7691 70.0379L41.7691 70.0378L41.5523 69.6164L42.023 69.6759L41.9916 69.9239L42.023 69.6759L42.0231 69.6759L42.0232 69.6759L42.0238 69.676L42.0263 69.6763L42.0359 69.6775L42.0734 69.6822L42.2158 69.7002L42.7211 69.7641C42.7631 69.7683 42.8055 69.7738 42.8455 69.7791C42.8537 69.7802 42.8617 69.7812 42.8696 69.7823C42.8701 69.7823 42.8706 69.7824 42.8711 69.7824L42.876 69.783C43.0443 69.8027 43.2291 69.8243 43.4267 69.8461L43.4329 69.8467L43.4329 69.8468L43.4497 69.8491C43.4938 69.8551 43.5296 69.86 43.5672 69.8633L43.5759 69.8641L43.5759 69.8643C43.683 69.8776 43.7907 69.8906 43.8956 69.9014L43.9036 69.9022L43.9036 69.9023C43.946 69.9081 43.9897 69.9121 44.0414 69.9165L44.0478 69.917L44.0478 69.9171C44.2417 69.9387 44.4384 69.959 44.6333 69.979C44.6753 69.9834 44.7173 69.9877 44.7591 69.992C44.8053 69.9962 44.8548 70.0008 44.9055 70.0077C44.9639 70.0123 45.0288 70.018 45.0913 70.0235C45.1432 70.028 45.1935 70.0324 45.237 70.0359L45.2392 70.0361L45.3872 70.0493L45.3877 70.0494C45.5783 70.0668 45.7543 70.0777 45.9123 70.0865L45.9207 70.0869L45.9207 70.0871C45.9563 70.0903 45.993 70.0921 46.0318 70.094C46.0395 70.0944 46.0473 70.0947 46.0552 70.0951C46.1657 70.0993 46.2581 70.0992 46.3303 70.0971C46.7997 70.0832 47.1288 69.7195 47.3046 69.4577C47.3308 69.416 47.3521 69.3792 47.368 69.3507L47.3949 69.2981C47.4006 69.2871 47.4057 69.2779 47.41 69.2705L47.4638 69.1641L47.5147 69.1642C48.8261 68.1447 49.5526 67.0114 49.9182 66.0274C50.291 65.0243 50.2838 64.1926 50.1585 63.7924L50.1585 63.7923C50.0371 63.4039 49.7535 63.1541 49.4809 62.9971C49.3456 62.9192 49.2179 62.8672 49.1242 62.8348C49.0776 62.8186 49.0401 62.8076 49.0151 62.8008C49.0086 62.799 49.0029 62.7975 48.9982 62.7963C48.9938 62.7952 48.9902 62.7943 48.9875 62.7936L48.9817 62.7922L48.9817 62.7922L48.9815 62.7922L48.9814 62.7922L48.9811 62.7921L48.981 62.7921L48.7883 62.7505L48.7844 62.5527C48.7768 62.163 48.7728 61.7818 48.7688 61.4045C48.7597 60.5385 48.7508 59.6928 48.6995 58.8113L48.6828 58.5233L48.9702 58.5477C49.1238 58.5607 49.2821 58.4924 49.3749 58.3767L49.3755 58.3758C49.4523 58.281 49.4967 58.1498 49.5305 57.979C49.6395 57.3834 49.5376 56.7635 49.4243 56.105L49.4237 56.1012L49.4237 56.1012C49.4112 56.0214 49.4144 55.9391 49.4165 55.8836C49.4166 55.8791 49.4168 55.8748 49.4169 55.8706C49.4193 55.8041 49.4191 55.7686 49.4139 55.7418L49.3477 55.3956L49.6964 55.4476C49.752 55.4559 49.8192 55.4381 49.8877 55.3818C49.9572 55.3247 50.0103 55.2412 50.0316 55.1585L50.0319 55.1571C50.0842 54.9585 50.0368 54.7335 49.961 54.4541C49.6848 53.4662 49.2535 52.4835 48.7841 51.5511L49.1567 51.2381C49.1666 51.2455 49.1935 51.2575 49.2475 51.2376C49.3029 51.2172 49.3509 51.1738 49.3731 51.1299C49.4354 51.0035 49.4253 50.8339 49.3864 50.5973C49.2471 49.8353 48.9973 49.0945 48.6454 48.401L48.3467 47.8124L48.9604 48.0555C48.9739 48.0608 48.9964 48.0636 49.0327 48.0442C49.0714 48.0235 49.1099 47.9845 49.1328 47.938L49.1365 47.9305L49.1408 47.9232C49.1428 47.9197 49.1468 47.9113 49.1527 47.8902C49.1839 47.7515 49.1349 47.5867 49.0417 47.3661L49.0403 47.3629L49.0403 47.3629C49.0248 47.3248 49.0069 47.2854 48.9881 47.246L48.9857 47.241L48.9857 47.2409C48.824 46.8826 48.6271 46.5339 48.4016 46.2017C48.0387 45.6688 47.6052 45.1754 47.1313 44.7489C47.1241 44.7437 47.117 44.7378 47.11 44.7313C47.1043 44.7261 47.0991 44.7209 47.0943 44.7155C47.0717 44.6952 47.0491 44.6754 47.0252 44.6545L47.0234 44.6529C46.9949 44.6279 46.9644 44.6013 46.9337 44.5732L46.7974 44.4488L46.8761 44.2819C47.2815 43.4226 47.3076 42.3748 47.1548 41.3889C46.9929 41.3481 46.7966 41.3663 46.5713 41.4119L46.57 41.4122C45.6768 41.588 44.7718 41.9596 44.087 42.5213L43.449 43.0445L43.6892 42.2552C43.725 42.1378 43.7413 42.0694 43.7356 42.0111L43.7346 42.0009L43.7348 42.0009C43.7336 41.9789 43.7271 41.9588 43.719 41.9449C43.7146 41.9373 43.7109 41.9333 43.7087 41.9315C43.7036 41.9303 43.6931 41.9292 43.6749 41.9316C43.648 41.9352 43.6139 41.9455 43.5746 41.9629L43.5724 41.9638C43.3593 42.0556 43.127 42.204 43.0235 42.3465L42.6076 42.9186L42.5716 42.2122C42.5618 42.0203 42.5389 41.9363 42.495 41.8959L42.4941 41.8951C42.4769 41.8791 42.4443 41.8622 42.3793 41.8605C42.3134 41.8588 42.2334 41.8738 42.1521 41.9018C41.7946 42.0261 41.4857 42.2779 41.1481 42.5597L40.8797 42.7839L40.7545 42.4573C40.7108 42.3434 40.6693 42.2447 40.618 42.1656C40.5681 42.0885 40.5202 42.048 40.4716 42.0292L40.4705 42.0288C40.4033 42.0023 40.3117 42.0047 40.1827 42.0365L40.1821 42.0367C39.8166 42.126 39.4552 42.3152 39.24 42.5772L39.0788 42.7737L38.885 42.6092C37.952 41.8173 36.9672 41.4058 36.1531 41.2061C35.392 41.0194 34.7967 41.0215 34.5423 41.0599C34.5357 41.0852 34.5285 41.1259 34.5248 41.1865C34.5191 41.2802 34.5228 41.399 34.5356 41.5385C34.561 41.817 34.6199 42.1542 34.6912 42.4929C34.8333 43.1674 35.019 43.8225 35.064 43.9793C35.0681 43.9931 35.0711 44.0044 35.0733 44.0131L35.0761 44.0245L35.077 44.0286L35.0774 44.0304L35.0775 44.0311L35.0776 44.0315L35.0777 44.0316L35.0777 44.0317L35.0777 44.0318L34.8329 44.0827M31.8708 49.0478L31.8711 49.0477L31.8716 49.0474L31.872 49.0472C31.8719 49.0473 31.8715 49.0475 31.8708 49.0478ZM31.8708 49.0478L31.8602 49.0527C31.8498 49.0573 31.8337 49.0638 31.814 49.0703C31.7723 49.0841 31.7256 49.0938 31.6845 49.0928C31.6519 49.0917 31.6323 49.084 31.6191 49.0742C31.6088 49.0666 31.5854 49.0453 31.5645 48.9859C31.5657 48.9805 31.5676 48.9733 31.5704 48.9641C31.583 48.9229 31.6074 48.8638 31.6466 48.7855C31.7245 48.63 31.8466 48.4268 32.0028 48.1881C32.2207 47.8574 32.4997 47.4698 32.801 47.066L32.8013 47.0656C33.3007 46.3933 33.8566 45.6876 34.2883 45.1492C34.5041 44.8801 34.6885 44.6532 34.8189 44.4936C34.8841 44.4138 34.9358 44.3509 34.9712 44.3079L35.0116 44.2589L35.022 44.2463L35.0246 44.2432L35.0252 44.2424L35.0254 44.2422L35.0254 44.2422L34.8329 44.0827M34.8329 44.0827L35.0254 44.2422L35.1022 44.1496L35.0777 44.0318L34.8329 44.0827ZM30.1641 52.367C30.1963 52.7899 30.5521 52.7976 30.8556 52.724C30.9912 52.5433 31.078 52.4295 31.0928 52.4103L31.2914 52.562L31.4129 52.7805C31.3907 52.7929 31.2193 52.8799 31.004 52.943C30.2636 53.9325 28.3555 56.539 28.2969 57.1972C28.2496 57.7204 28.5895 57.6859 28.8416 57.5924L28.8497 57.4531L29.0992 57.4675C29.232 57.6793 29.232 57.6793 29.2319 57.6794L29.2317 57.6795L29.2314 57.6797L29.2303 57.6804L29.2273 57.6822L29.2177 57.6881C29.2096 57.6929 29.1984 57.6994 29.1845 57.7073C29.159 57.7216 29.124 57.7405 29.0824 57.7608L28.8781 61.3101C28.9047 61.3248 28.9277 61.3386 28.9468 61.3507C28.9667 61.3633 28.9827 61.3742 28.9943 61.3825L29.0085 61.3929L29.0132 61.3964L29.0149 61.3977L29.0156 61.3983L29.0159 61.3985C29.016 61.3986 29.0162 61.3987 28.8617 61.5953M30.1641 52.367L26.1452 71.9446C24.1975 68.9955 26.4567 66.0487 26.4567 66.0487C26.4567 66.0487 26.4096 65.9357 26.3536 65.7386C26.1721 65.1071 25.8851 63.6271 26.7055 62.3796C27.4702 61.2149 28.2395 61.3115 28.6189 61.4635L28.6121 61.5809L28.8617 61.5953M30.1641 52.367C30.1191 51.7879 31.2266 50.2607 31.7363 49.5915L30.1641 52.367ZM28.8617 61.5953C28.7072 61.7918 28.7073 61.792 28.7075 61.792L28.7072 61.7918L28.8617 61.5953ZM47.4245 69.256C47.4246 69.256 47.4246 69.256 47.4246 69.256L47.6175 69.3846L47.4245 69.256Z" fill="#C4C4C4" stroke="black" stroke-width="0.5"/>
<path d="M37.2012 63.2963C36.761 63.2963 36.3057 63.0344 35.9721 62.5857C35.7729 62.3176 35.6289 62.0151 35.4898 61.7226C35.4604 61.6607 35.4306 61.5981 35.4001 61.5354C35.3499 61.7059 35.2841 61.8791 35.1775 62.0309C34.9941 62.2913 34.7042 62.4376 34.4379 62.4034C34.1312 62.3637 33.8866 62.1222 33.6897 61.6647C33.4672 61.1476 33.3173 60.606 33.2424 60.0508C33.1932 60.1439 33.1367 60.2347 33.0641 60.3168C32.9733 60.4192 32.8576 60.4718 32.7473 60.4624C32.6753 60.4558 32.6139 60.4233 32.574 60.3994C32.1177 60.1246 32.0524 59.4986 32.0431 59.0517C32.0215 58.0219 32.1931 57.0099 32.5529 56.0435C32.571 55.9949 32.6256 55.97 32.6747 55.9878C32.7237 56.0057 32.749 56.0596 32.7308 56.1083C32.384 57.0394 32.2117 58.0557 32.2325 59.0478C32.2409 59.4507 32.2957 60.0123 32.6723 60.2393C32.71 60.2618 32.7393 60.2733 32.7642 60.2756C32.8125 60.2809 32.8717 60.2494 32.9213 60.1933C33.0242 60.077 33.0911 59.9352 33.1619 59.7851C33.1798 59.7472 33.1976 59.7094 33.2161 59.6721C33.2348 59.6341 33.2767 59.6129 33.319 59.6211C33.361 59.6291 33.3924 59.6637 33.3959 59.7059C33.4483 60.3564 33.6058 60.9907 33.8641 61.5914C34.0325 61.9822 34.228 62.1873 34.4623 62.2175C34.6583 62.244 34.8782 62.1276 35.0216 61.9238C35.1598 61.7273 35.221 61.4837 35.2802 61.2482C35.2898 61.2104 35.3218 61.1824 35.3609 61.1777C35.401 61.1736 35.4381 61.1929 35.4561 61.2272C35.5286 61.3641 35.596 61.5059 35.6612 61.6428C35.7966 61.9272 35.9364 62.2215 36.1248 62.4749C36.4354 62.8928 36.8553 63.1301 37.2507 63.1076C37.4844 63.0948 37.7158 62.9766 37.8858 62.7835C38.0558 62.5903 38.1423 62.3474 38.1229 62.117C38.1186 62.0654 38.1574 62.0201 38.2096 62.0159C38.2632 62.0107 38.3076 62.0499 38.3119 62.1015C38.3353 62.3821 38.2322 62.6755 38.0288 62.9065C37.8254 63.1375 37.5455 63.279 37.2612 63.2948C37.2415 63.2957 37.2213 63.2963 37.2012 63.2963Z" fill="#1E1A19"/>
<path d="M39.5276 65.1395C39.3488 65.1395 39.182 65.1144 39.0552 65.0639C39.0066 65.0446 38.9832 64.99 39.0027 64.942C39.0224 64.8939 39.0778 64.8705 39.1261 64.8901C39.4594 65.0232 40.1607 64.9406 40.4209 64.674C40.6958 64.3921 40.8515 63.9975 40.9889 63.6495L41.2217 63.0595C41.2355 63.0244 41.2694 63.0009 41.3075 62.9999C41.3471 62.993 41.3808 63.0206 41.3965 63.0549C41.4962 63.2732 41.6419 63.5384 41.8873 63.6521C42.0831 63.7429 42.3369 63.7283 42.5666 63.6133C42.7561 63.5184 42.9351 63.3571 43.1134 63.1206C43.4666 62.6523 43.683 62.0975 43.739 61.5162C43.7431 61.4723 43.7777 61.4371 43.8221 61.432C43.8665 61.4277 43.9084 61.4528 43.923 61.4943C44.0375 61.8202 44.1847 62.1778 44.4872 62.294C44.6881 62.3711 44.9455 62.3253 45.1586 62.1743C45.3789 62.0177 45.5268 61.7799 45.6311 61.5904C45.9248 61.0566 46.1068 60.4538 46.1575 59.8479C46.1618 59.7965 46.2072 59.7565 46.2598 59.7623C46.3119 59.7665 46.3509 59.8117 46.3466 59.8634C46.2938 60.4952 46.1041 61.1235 45.7977 61.68C45.6839 61.8872 45.5208 62.1479 45.2694 62.3264C45.0049 62.5142 44.6789 62.569 44.4186 62.4686C44.1541 62.367 43.9922 62.1393 43.8748 61.8866C43.7748 62.3725 43.5674 62.8324 43.2655 63.2326C43.0692 63.4928 42.8687 63.672 42.6524 63.7804C42.3712 63.9213 42.0553 63.9368 41.807 63.8216C41.5809 63.7168 41.4297 63.5209 41.3205 63.3251L41.1657 63.7173C41.0218 64.0817 40.8589 64.4948 40.5575 64.8037C40.3402 65.0264 39.9071 65.1395 39.5276 65.1395Z" fill="#1E1A19"/>
<path d="M46.5056 61.2275C46.3992 61.2275 46.2912 61.199 46.2012 61.1446C46.0882 61.0761 46.0151 60.9739 45.9954 60.8564C45.9868 60.8054 46.0218 60.7571 46.0735 60.7485C46.1253 60.74 46.1739 60.7745 46.1825 60.8256C46.1961 60.9066 46.2541 60.9568 46.3002 60.9847C46.3913 61.0398 46.5147 61.0555 46.6147 61.024C46.8252 60.9581 46.9743 60.7523 47.0678 60.6033C47.6205 59.7243 47.7171 58.6299 47.7394 57.7744C47.7405 57.7328 47.7691 57.6971 47.8094 57.6861C47.8501 57.6758 47.8928 57.6924 47.9148 57.7274C47.9499 57.7838 48.1341 58.0612 48.2921 57.9891C48.3538 57.9611 48.3941 57.8836 48.4253 57.8113C48.6227 57.3558 48.6849 56.8122 48.6101 56.1955C48.543 55.6416 48.3758 55.0952 48.2139 54.5667C48.1987 54.5171 48.2272 54.4648 48.2772 54.4499C48.3278 54.4344 48.3803 54.463 48.3955 54.5124C48.5597 55.0485 48.7294 55.6031 48.7984 56.1733C48.8771 56.823 48.8101 57.399 48.5997 57.8851C48.5541 57.9902 48.4913 58.1049 48.3709 58.1595C48.2253 58.2253 48.0673 58.1811 47.9196 58.0373C47.8821 58.8714 47.7502 59.8723 47.2286 60.7018C47.1191 60.8761 46.942 61.1177 46.6717 61.2025C46.6189 61.2194 46.5624 61.2275 46.5056 61.2275Z" fill="#1E1A19"/>
<path d="M36.8003 70.5659C36.2808 70.566 35.7846 70.4786 35.5335 70.1968C34.9689 69.5631 35.1401 68.8217 35.2023 68.6185L31.5491 64.2096C31.5158 64.1695 31.5218 64.1105 31.5623 64.0776C31.6031 64.0448 31.6628 64.0508 31.6959 64.0907L35.382 68.5394C35.4034 68.5651 35.4092 68.6004 35.3975 68.6317C35.3854 68.6641 35.1054 69.4328 35.6759 70.0728C36.1502 70.6048 37.8837 70.3096 38.5118 70.1508C38.5279 70.1467 38.5447 70.1472 38.5609 70.1514C38.7904 70.2152 39.4402 70.3317 39.6851 70.1108C39.7094 70.0891 39.7436 70.0812 39.7754 70.0901C39.7833 70.0923 40.5713 70.3114 40.8858 69.9362C40.9023 69.9165 40.9263 69.9044 40.9521 69.9026L41.9173 69.8351C42.3061 68.3707 40.3379 67.0895 40.3176 67.0766C40.3059 67.0691 40.2962 67.0592 40.2889 67.0475L37.7579 63.0539C37.73 63.0101 37.7436 62.9521 37.7879 62.9247C37.8322 62.8971 37.8907 62.9103 37.9187 62.9544L40.4387 66.9307C40.537 66.996 41.0075 67.3189 41.4346 67.8086C42.0671 68.5336 42.2905 69.2745 42.081 69.9514C42.0695 69.9884 42.0361 70.0147 41.997 70.0174L41.0043 70.087C40.6492 70.4611 39.9624 70.3289 39.7717 70.2828C39.4114 70.5449 38.6816 70.3762 38.5347 70.3387C38.3767 70.3771 37.5634 70.5659 36.8003 70.5659Z" fill="#1E1A19"/>
<path d="M38.4497 70.3054C38.3977 70.3054 38.3552 70.2639 38.3549 70.2124C38.3509 69.654 38.1584 69.1036 37.813 68.6622C37.781 68.6215 37.7886 68.5625 37.83 68.5308C37.8715 68.4992 37.9312 68.5066 37.963 68.5476C38.3337 69.021 38.5403 69.6117 38.5446 70.211C38.5449 70.2629 38.5029 70.305 38.4505 70.3054C38.4502 70.3054 38.45 70.3054 38.4497 70.3054Z" fill="#1E1A19"/>
<path d="M39.7425 70.2819C39.7414 70.2819 39.7402 70.2818 39.739 70.2818C39.6867 70.2799 39.6457 70.2364 39.6477 70.1847C39.67 69.5719 39.4928 68.9534 39.1489 68.443C39.12 68.3999 39.1317 68.3417 39.1752 68.3129C39.2189 68.2842 39.2776 68.2957 39.3068 68.3389C39.6725 68.8819 39.861 69.5398 39.8373 70.1914C39.8353 70.2421 39.7933 70.2819 39.7425 70.2819Z" fill="#1E1A19"/>
<path d="M40.9647 70.0653C40.9134 70.0653 40.871 70.0244 40.87 69.9734C40.8575 69.3654 40.6323 68.7745 40.2359 68.3095C40.2022 68.27 40.2073 68.2108 40.2473 68.1774C40.2873 68.1442 40.3471 68.1491 40.3808 68.1886C40.805 68.6863 41.0461 69.3188 41.0595 69.9695C41.0606 70.0213 41.019 70.0641 40.9666 70.0651C40.966 70.0653 40.9654 70.0653 40.9647 70.0653Z" fill="#1E1A19"/>
<path d="M41.8126 68.6409C41.766 68.6409 41.7254 68.6068 41.7188 68.5598C41.6284 67.912 41.81 67.245 42.2173 66.7297C42.2496 66.6889 42.3091 66.6816 42.3504 66.7134C42.3917 66.7453 42.399 66.8042 42.3668 66.8451C41.9966 67.3137 41.8246 67.9452 41.9068 68.5341C41.9139 68.5854 41.8777 68.6326 41.8258 68.6398C41.8214 68.6406 41.8171 68.6409 41.8126 68.6409Z" fill="#1E1A19"/>
<path d="M47.5365 69.5978C47.5328 69.598 47.5289 69.5978 47.5251 69.5972C47.4852 69.5925 47.4568 69.5566 47.4617 69.5169C47.5741 68.6223 47.3461 67.6804 46.8364 66.933C46.8256 66.9172 46.8216 66.8977 46.8253 66.879C47.1498 65.2215 47.3697 63.4974 47.4792 61.7548C47.4817 61.7151 47.5163 61.6856 47.5565 61.6876C47.5966 61.6899 47.6272 61.7241 47.6246 61.7639C47.5154 63.5024 47.2964 65.2224 46.9741 66.8773C47.4915 67.6492 47.7217 68.6159 47.6065 69.5348C47.602 69.5706 47.5717 69.5967 47.5365 69.5978Z" fill="#1E1A19"/>
<path d="M47.5339 69.6196C47.53 69.6196 47.526 69.6193 47.522 69.6187C47.4976 69.6158 47.4751 69.6031 47.4596 69.5837C47.4439 69.5639 47.4371 69.5393 47.4402 69.5143C47.552 68.6249 47.3254 67.6883 46.8185 66.9452C46.8043 66.9243 46.7992 66.8994 46.804 66.8749C47.1282 65.2186 47.348 63.4954 47.4574 61.7535C47.4607 61.7028 47.5062 61.6622 47.5576 61.666C47.6099 61.6691 47.6498 61.7136 47.6467 61.7652C47.5376 63.501 47.3191 65.2195 46.9974 66.8728C47.5139 67.6471 47.7438 68.6179 47.6282 69.5374C47.6224 69.5835 47.5842 69.6179 47.5374 69.6194C47.5362 69.6196 47.535 69.6196 47.5339 69.6196ZM47.5525 61.7091C47.5253 61.7091 47.5028 61.7291 47.5013 61.7561C47.3917 63.4998 47.1716 65.2248 46.8471 66.883C46.8445 66.8962 46.8472 66.9097 46.8548 66.921C47.3676 67.6726 47.5968 68.6199 47.4837 69.5196C47.482 69.533 47.4857 69.5463 47.4942 69.5569C47.5025 69.5674 47.5145 69.5741 47.5279 69.5758C47.5308 69.5762 47.5331 69.5761 47.5357 69.5762L47.5359 69.5761C47.5611 69.5753 47.5817 69.5568 47.5848 69.532C47.6994 68.6196 47.4702 67.6562 46.956 66.889C46.9528 66.8843 46.9517 66.8786 46.9528 66.8729C47.2751 65.2189 47.4939 63.4993 47.603 61.7623C47.6047 61.7346 47.5833 61.7106 47.5553 61.7089C47.5544 61.7091 47.5534 61.7091 47.5525 61.7091Z" fill="#1E1A19"/>
<path d="M46.0437 70.3447C45.9989 70.3422 45.9483 70.3399 45.8977 70.3357C45.9782 69.7378 45.9788 69.1346 45.8999 68.5357C45.8948 68.4955 45.9228 68.4619 45.9634 68.4549C46.0022 68.4499 46.0399 68.4795 46.0431 68.5177C46.1242 69.1262 46.1259 69.739 46.0437 70.3447Z" fill="#1E1A19"/>
<path d="M46.0438 70.3664C46.0433 70.3664 46.0428 70.3664 46.0425 70.3662L46.0105 70.3645C45.9742 70.3626 45.935 70.3604 45.8959 70.3572C45.8899 70.3568 45.8845 70.3539 45.8807 70.3492C45.8768 70.3446 45.8751 70.3387 45.8759 70.3329C45.9559 69.7382 45.9567 69.1344 45.8781 68.5385C45.8716 68.488 45.9067 68.4428 45.9596 68.4337C45.9853 68.4302 46.0107 68.4377 46.0307 68.4536C46.0504 68.4694 46.0629 68.4923 46.0649 68.5161C46.1467 69.1297 46.147 69.7461 46.0653 70.3475C46.0639 70.3583 46.0547 70.3664 46.0438 70.3664ZM45.9225 70.316C45.9535 70.3183 45.9841 70.3198 46.013 70.3213L46.0248 70.3221C46.1033 69.7308 46.1021 69.1248 46.0215 68.5207C46.0204 68.5075 46.0139 68.4958 46.0033 68.4872C45.9925 68.4787 45.9787 68.4746 45.9664 68.4764C45.9373 68.4815 45.9181 68.5053 45.9216 68.533C45.9996 69.1251 45.9999 69.7247 45.9225 70.316Z" fill="#1E1A19"/>
<path d="M44.8787 70.2553C44.8318 70.2491 44.7831 70.2448 44.7344 70.2406C44.8192 69.7193 44.8358 69.1925 44.7862 68.6618C44.7811 68.6235 44.8112 68.5881 44.8518 68.583C44.8925 68.5818 44.9264 68.6095 44.9316 68.6498C44.9833 69.1879 44.9652 69.7244 44.8787 70.2553Z" fill="#1E1A19"/>
<path d="M44.8788 70.2769C44.8778 70.2769 44.8769 70.2767 44.8758 70.2766C44.8323 70.2708 44.7869 70.2669 44.7415 70.2627L44.7324 70.262C44.7264 70.2614 44.7209 70.2585 44.7172 70.2536C44.7135 70.2489 44.712 70.243 44.7129 70.237C44.7966 69.7224 44.8138 69.1931 44.7644 68.6638C44.7614 68.6413 44.768 68.6179 44.7829 68.5985C44.7988 68.5783 44.8229 68.5648 44.8491 68.5614C44.8503 68.5613 44.8517 68.5613 44.8529 68.5613C44.9057 68.5613 44.9469 68.5967 44.9532 68.6469C45.0049 69.1832 44.9871 69.7252 44.9003 70.2585C44.8986 70.2693 44.8894 70.2769 44.8788 70.2769ZM44.7598 70.2211C44.7937 70.2241 44.8275 70.2273 44.8605 70.2313C44.9438 69.7082 44.9605 69.177 44.9098 68.6519C44.9062 68.6233 44.8838 68.6014 44.8526 68.6048C44.84 68.6063 44.8266 68.6139 44.8177 68.6252C44.8098 68.6352 44.8065 68.6472 44.808 68.6591C44.8572 69.1849 44.8409 69.7099 44.7598 70.2211Z" fill="#1E1A19"/>
<path d="M43.5452 70.1117C43.4966 70.1074 43.4478 70.1012 43.3989 70.0949C43.4749 69.5413 43.4631 68.9749 43.3623 68.4248C43.357 68.3846 43.3812 68.3474 43.4218 68.3404C43.4624 68.3334 43.5001 68.3591 43.5052 68.3992C43.6085 68.9629 43.6208 69.5445 43.5452 70.1117Z" fill="#1E1A19"/>
<path d="M43.5452 70.1333C43.5446 70.1333 43.544 70.1332 43.5432 70.1332C43.4941 70.1288 43.4452 70.1227 43.3961 70.1163C43.3903 70.1155 43.3851 70.1127 43.3815 70.1079C43.378 70.1034 43.3764 70.0976 43.3772 70.092C43.4534 69.5367 43.4412 68.9771 43.3408 68.4287C43.3338 68.3747 43.3671 68.3278 43.418 68.3192C43.444 68.3145 43.4705 68.3207 43.4911 68.3356C43.5111 68.3502 43.5238 68.3718 43.5271 68.3966C43.6302 68.9602 43.6437 69.5387 43.5669 70.1145C43.5654 70.1253 43.5562 70.1333 43.5452 70.1333ZM43.4235 70.0761C43.4578 70.0806 43.492 70.0847 43.5263 70.0882C43.5994 69.5236 43.5851 68.9567 43.484 68.4031C43.4821 68.3891 43.4755 68.3779 43.4652 68.3704C43.454 68.3622 43.4401 68.3593 43.4257 68.3618C43.3978 68.3666 43.3803 68.392 43.3841 68.4223C43.4838 68.9666 43.4971 69.5233 43.4235 70.0761Z" fill="#1E1A19"/>
<path d="M38.7018 46.9523C38.7125 47.2974 38.4383 47.5857 38.0892 47.5963C37.7401 47.607 37.4486 47.3359 37.4378 46.9908C37.427 46.6457 37.7014 46.3575 38.0503 46.3469C38.3993 46.3362 38.691 46.6072 38.7018 46.9523Z" fill="#1E1A19"/>
<path d="M44.6732 46.7213C44.684 47.0664 44.4098 47.3546 44.0607 47.3652C43.7116 47.3759 43.42 47.1048 43.4092 46.7597C43.3985 46.4146 43.6726 46.1264 44.0218 46.1158C44.3707 46.1051 44.6624 46.3763 44.6732 46.7213Z" fill="#1E1A19"/>
<path d="M40.7165 46.7826L41.7152 46.7605C41.7975 46.7587 41.8406 46.8565 41.783 46.9149L41.3152 47.3896C41.2812 47.424 41.2261 47.4264 41.1891 47.3949L40.6585 46.9423C40.5948 46.8878 40.6323 46.7844 40.7165 46.7826Z" fill="#FECBC8"/>
<path d="M41.3023 48.1082C41.2327 48.4331 41.0578 48.7438 40.6775 48.886C40.5756 48.9238 40.4751 48.9422 40.3762 48.9452C39.5666 48.9699 38.9049 47.9393 38.8742 47.8903C38.8518 47.8564 38.8621 47.812 38.8964 47.7916C38.9307 47.7714 38.9756 47.7796 38.9962 47.8135C39.0044 47.8267 39.7988 49.0588 40.6267 48.7511C41.2221 48.5274 41.2263 47.7878 41.1787 47.3878L41.1887 47.3951C41.2007 47.4062 41.2164 47.4115 41.232 47.4129C41.2613 47.4197 41.2921 47.4111 41.3147 47.3893L41.326 47.3774C41.3498 47.5747 41.3601 47.8453 41.3023 48.1082Z" fill="#1E1A19"/>
<path d="M43.714 47.7428C43.6865 47.7936 43.0883 48.8626 42.2807 48.8871C42.1816 48.8902 42.0784 48.878 41.9744 48.8465C41.5839 48.7277 41.392 48.4282 41.3023 48.1082C41.2325 47.8644 41.2226 47.6074 41.232 47.413C41.2614 47.4199 41.2922 47.4112 41.3148 47.3894L41.326 47.3776L41.3863 47.3181C41.3574 47.7012 41.3769 48.5133 42.0165 48.7089C42.866 48.9654 43.5782 47.6874 43.5854 47.6737C43.6037 47.6386 43.6482 47.6276 43.6836 47.6457C43.7193 47.6638 43.7324 47.7076 43.714 47.7428Z" fill="#1E1A19"/>
<path d="M35.7449 43.3832C35.7272 43.4413 35.6641 43.474 35.6067 43.5026C35.3809 43.6132 35.1675 43.7504 34.9722 43.9081C34.9134 43.956 34.8664 44.0055 34.8231 44.0491C34.7337 43.7369 34.0698 41.3943 34.3326 40.9099C34.9574 41.567 35.4047 42.387 35.7267 43.2378C35.7437 43.2833 35.7609 43.3347 35.7449 43.3832Z" fill="#FECBC8"/>
<path d="M47.1013 44.3894C47.1612 44.4414 47.2192 44.4914 47.2792 44.5453C47.067 44.4076 46.8489 44.2683 46.6444 44.1305C46.4536 43.124 46.7327 42.0397 47.3841 41.2438C47.5603 42.2835 47.5534 43.4342 47.1013 44.3894Z" fill="#FECBC8"/>
<path d="M31.5994 47.11C31.5523 47.11 31.5115 47.0753 31.5054 47.0279C31.4989 46.9765 31.5357 46.9296 31.5877 46.9232C33.2727 46.7138 34.983 46.7035 36.6709 46.8925C36.7229 46.8983 36.7603 46.9447 36.7544 46.9961C36.7486 47.0477 36.7016 47.0849 36.6495 47.0787C34.9769 46.8915 33.2817 46.9018 31.6114 47.1091C31.6074 47.1097 31.6034 47.11 31.5994 47.11Z" fill="#1E1A19"/>
<path d="M30.6646 48.4795C30.6252 48.4795 30.5885 48.455 30.5749 48.4159C30.558 48.3671 30.5845 48.3137 30.634 48.2969C32.5806 47.6386 34.6957 47.348 36.7496 47.4541C36.8019 47.457 36.8421 47.501 36.8393 47.5527C36.8365 47.6044 36.7939 47.6412 36.7396 47.6413C34.7093 47.535 32.6194 47.8232 30.6953 48.4742C30.6851 48.4778 30.6748 48.4795 30.6646 48.4795Z" fill="#1E1A19"/>
<path d="M30.574 49.9479C30.5394 49.9479 30.5062 49.9291 30.4894 49.8966C30.4655 49.8504 30.4842 49.7941 30.5308 49.7705C32.4936 48.7824 34.5945 48.1267 36.7751 47.8216C36.8273 47.8134 36.875 47.8499 36.8824 47.9013C36.8897 47.9525 36.8536 47.9998 36.8017 48.0071C34.6419 48.3094 32.5609 48.9589 30.6169 49.9375C30.6031 49.9445 30.5885 49.9479 30.574 49.9479Z" fill="#1E1A19"/>
<path d="M45.3133 46.8614C45.2739 46.8614 45.2373 46.837 45.2237 46.7981C45.2067 46.7493 45.2328 46.6959 45.2823 46.679C46.9597 46.1064 48.7095 45.8481 50.4831 45.909C50.5354 45.9108 50.5763 45.9541 50.5745 46.0059C50.5726 46.0577 50.5274 46.0965 50.4765 46.0963C48.7271 46.0366 46.9996 46.2912 45.3444 46.8562C45.3339 46.8597 45.3236 46.8614 45.3133 46.8614Z" fill="#1E1A19"/>
<path d="M51.371 47.4876C51.3656 47.4876 51.3603 47.4872 51.3549 47.4863C49.4347 47.1623 47.4781 47.0881 45.5392 47.2656C45.4878 47.2712 45.4409 47.2326 45.4359 47.1809C45.4312 47.1293 45.4695 47.0837 45.5216 47.079C47.4773 46.9003 49.4504 46.9749 51.3867 47.3016C51.4384 47.3103 51.473 47.3588 51.4643 47.4098C51.4564 47.4552 51.4163 47.4876 51.371 47.4876Z" fill="#1E1A19"/>
<path d="M51.1792 48.7727C51.1667 48.7727 51.1541 48.7703 51.1421 48.7651C49.4018 48.0314 47.4821 47.6304 45.5909 47.6059C45.5386 47.6051 45.4966 47.5627 45.4973 47.5108C45.4981 47.4596 45.5404 47.4183 45.5921 47.4183C45.5926 47.4183 45.593 47.4183 45.5933 47.4183C47.5092 47.4434 49.4535 47.8495 51.2164 48.5929C51.2646 48.6132 51.287 48.6682 51.2664 48.7158C51.2512 48.7513 51.2161 48.7727 51.1792 48.7727Z" fill="#1E1A19"/>
<path d="M42.1978 57.9653C41.9579 57.9653 41.7153 57.8862 41.5325 57.7496C41.2322 57.5253 41.0782 57.2015 40.9995 56.9176C40.9257 57.1315 40.8295 57.3447 40.6817 57.5271C40.455 57.8063 40.0478 58.0302 39.649 57.9006C39.3382 57.7998 39.1045 57.5084 38.9546 57.0348C38.8334 56.6512 38.7687 56.2557 38.7618 55.8562C38.5492 56.117 38.2932 56.345 37.9545 56.375C37.7848 56.3903 37.6005 56.3502 37.4219 56.2602C37.0037 56.0495 36.6937 55.6113 36.571 55.0582C36.4636 54.5737 36.503 54.0802 36.5412 53.6031C36.5453 53.5514 36.5901 53.5143 36.6432 53.5169C36.6953 53.521 36.7344 53.5661 36.7303 53.6177C36.6932 54.0813 36.655 54.5607 36.7564 55.0182C36.8669 55.5161 37.1408 55.9081 37.5082 56.0932C37.655 56.1672 37.804 56.1999 37.9376 56.1882C38.2953 56.1566 38.5623 55.8233 38.7844 55.5134C38.8089 55.4793 38.8526 55.4652 38.8929 55.479C38.9328 55.4928 38.9586 55.5309 38.9564 55.5725C38.9312 56.0498 38.9915 56.5228 39.1357 56.9788C39.2662 57.3914 39.4588 57.6416 39.7082 57.7227C40.0191 57.8232 40.3541 57.6311 40.5338 57.4098C40.7454 57.1494 40.844 56.7999 40.9311 56.4918C40.9434 56.4481 40.986 56.4188 41.0309 56.4237C41.0765 56.4278 41.1126 56.4632 41.1168 56.5084C41.1434 56.7882 41.2476 57.3021 41.647 57.6004C41.9481 57.8252 42.4673 57.8612 42.7315 57.5537C42.7652 57.5145 42.8252 57.5091 42.8651 57.5431C42.9051 57.5764 42.91 57.6355 42.876 57.6751C42.7024 57.8769 42.4516 57.9651 42.1978 57.9653Z" fill="#1E1A19"/>
<path d="M42.2069 71.827C42.2024 71.8713 42.1957 71.9134 42.1889 71.9577V71.9644C41.9626 72.6091 41.3596 73.2295 39.9856 73.5175C36.5026 74.2421 28.0884 74.8935 26.1452 71.9444C24.1975 68.9954 26.4567 66.0486 26.4567 66.0486C26.4567 66.0486 26.4096 65.9356 26.3536 65.7384H26.3827C27.1246 65.7296 27.1762 66.0951 27.5571 66.5848C28.3887 67.6572 29.7985 68.3862 31.1209 68.6366C32.4769 68.8936 33.8576 68.6986 35.236 68.5125C35.6171 68.4615 35.9981 68.4106 36.3769 68.3707C37.3228 68.2711 38.3224 68.251 39.2548 68.4328C39.7815 68.5347 40.2858 68.7009 40.7454 68.9557C40.9785 69.0819 41.2004 69.2303 41.4088 69.4054C41.5927 69.5605 41.763 69.7333 41.8975 69.9306C41.9558 70.0126 42.0073 70.1012 42.0521 70.1943C42.2921 70.6948 42.2786 71.2752 42.2069 71.827Z" fill="#D7D7D7"/>
<path d="M42.189 71.9644C41.9627 72.6091 41.3597 73.2295 39.9857 73.5176C36.5027 74.2421 28.0885 74.8935 26.1453 71.9445" stroke="#1E1A19" stroke-width="0.6" stroke-miterlimit="10" stroke-linecap="round" stroke-linejoin="round"/>
<path d="M58.8765 69.0469C58.9397 67.02 57.3287 65.3263 55.2783 65.2638C53.2279 65.2014 51.5145 66.7938 51.4513 68.8207C51.3881 70.8476 52.9991 72.5414 55.0495 72.6038C57.0999 72.6663 58.8133 71.0738 58.8765 69.0469Z" fill="#FFA577"/>
<path d="M58.38 67.0871C58.3362 67.0117 58.258 69.5964 56.4818 70.6162C54.7056 71.6361 51.743 70.7035 51.9478 70.7804C52.9681 72.5366 55.2351 73.1335 57.0113 72.1136C58.7875 71.0937 59.4003 68.8433 58.38 67.0871Z" fill="#353535" fill-opacity="0.2"/>
<g opacity="0.8">
<g opacity="0.48">
<path d="M52.1698 67.7118L52.1096 67.6753C52.8754 66.4458 54.0841 66.1049 54.0962 66.1016L54.115 66.1688C54.1032 66.1721 52.9203 66.5066 52.1698 67.7118Z" fill="#FFA577"/>
<path d="M52.501 68.5991L52.4377 68.5684C53.1118 67.2089 54.3822 66.74 54.395 66.7355L54.4191 66.801C54.4065 66.8056 53.1621 67.2658 52.501 68.5991Z" fill="#FFA577"/>
<path d="M53.0177 69.3101L52.957 69.2743C53.3443 68.6331 53.7923 68.2483 54.0999 68.0384C54.4345 67.8101 54.6746 67.735 54.6846 67.7319L54.7055 67.7986C54.6961 67.8013 53.7446 68.1062 53.0177 69.3101Z" fill="#FFA577"/>
<path d="M53.6764 69.8627L53.6213 69.8192C54.0223 69.3226 54.7456 68.8826 54.7528 68.8782L54.7896 68.9376C54.7824 68.9419 54.0694 69.3758 53.6764 69.8627Z" fill="#FFA577"/>
</g>
<g opacity="0.48">
<path d="M55.728 71.472C55.4555 71.472 55.1801 71.4458 54.9064 71.393C53.2773 71.0796 51.9591 69.9177 51.4658 68.361L51.5332 68.3402C52.0186 69.8724 53.3163 71.016 54.9199 71.3246C55.6072 71.4569 56.3053 71.4195 56.9381 71.2166C57.6225 70.9971 58.2071 70.6003 58.6755 70.0371L58.7299 70.0814C58.2528 70.6551 57.6572 71.0593 56.9598 71.2831C56.5678 71.4087 56.1514 71.472 55.728 71.472Z" fill="white"/>
<path d="M55.5509 72.2776C55.122 72.2776 54.6855 72.2154 54.2527 72.0896C53.1227 71.7616 52.1537 71.0213 51.594 70.0589L51.6552 70.024C52.2059 70.9711 53.16 71.6995 54.2725 72.0227C55.416 72.3547 56.5856 72.2373 57.566 71.6919L57.6006 71.7527C56.975 72.1007 56.2736 72.2776 55.5509 72.2776Z" fill="white"/>
</g>
<g opacity="0.48">
<path d="M55.456 70.485L55.3883 70.4655C56.1785 67.7717 55.1146 66.1146 54.6602 65.4069C54.6401 65.3756 54.6211 65.3461 54.6038 65.3187L54.6636 65.2817C54.681 65.3091 54.6998 65.3383 54.7198 65.3696C55.1792 66.0851 56.2551 67.761 55.456 70.485Z" fill="#FFA577"/>
<path d="M56.5886 70.4522L56.524 70.4243C56.8367 69.721 56.9388 68.738 56.804 67.7275C56.6757 66.7652 56.344 65.8825 55.9167 65.3663L55.9714 65.3221C56.4066 65.8479 56.744 66.7438 56.8741 67.7185C57.0104 68.7412 56.9064 69.7376 56.5886 70.4522Z" fill="#FFA577"/>
</g>
</g>
<path d="M55.8708 70.5366C55.7752 70.5366 55.6789 70.5331 55.582 70.5259C54.6784 70.4594 53.7906 70.0845 53.1463 69.4972C52.4122 68.8281 52.0242 67.9379 52.0242 66.923H52.0946C52.0946 67.918 52.4748 68.7904 53.194 69.4459C53.8268 70.0228 54.699 70.391 55.5871 70.4564C56.3505 70.5125 57.0756 70.3416 57.6288 69.975C58.2457 69.566 58.6358 68.9277 58.7567 68.1289L58.8264 68.1393C58.7025 68.958 58.3019 69.6129 57.668 70.033C57.1726 70.3613 56.5428 70.5366 55.8708 70.5366Z" fill="white"/>
<path d="M54.5525 70.2781L54.4854 70.2568C54.9413 68.8559 54.7017 67.658 54.4204 66.8998C54.1153 66.0771 53.6965 65.5796 53.6924 65.5748L53.7464 65.5299C53.7507 65.5349 54.1761 66.0399 54.4858 66.8732C54.7712 67.642 55.0148 68.8569 54.5525 70.2781Z" fill="white"/>
<path d="M57.6787 70.0152L57.6104 69.998C58.1846 67.7768 57.5632 66.5817 57.2978 66.0714C57.2647 66.0077 57.2361 65.9526 57.2161 65.9078L57.2807 65.8796C57.2998 65.9225 57.3279 65.9767 57.3605 66.0395C57.6295 66.5568 58.2595 67.7685 57.6787 70.0152Z" fill="white"/>
</svg>
