<svg width="51" height="50" viewBox="0 0 51 50" fill="none" xmlns="http://www.w3.org/2000/svg">
<rect width="50" height="50" transform="translate(0.399902)" fill="#229ED9"/>
<path d="M34.7316 15.4288C34.7316 15.4288 36.8131 14.5522 36.6396 16.681C36.5818 17.5575 36.0615 20.6254 35.6567 23.9437L34.2691 33.7735C34.2691 33.7735 34.1535 35.2136 33.1128 35.4639C32.072 35.7143 30.511 34.5875 30.2219 34.337C29.9907 34.1491 25.8857 31.3317 24.4403 29.9543C24.0355 29.5786 23.573 28.8273 24.498 27.9507L30.5688 21.6898C31.2626 20.9385 31.9565 19.1854 29.0656 21.3142L20.9712 27.2621C20.9712 27.2621 20.0461 27.8882 18.3117 27.3247L14.5535 26.0725C14.5535 26.0725 13.1659 25.1333 15.5364 24.1942C21.3182 21.2515 28.4296 18.2462 34.7316 15.4288Z" fill="white"/>
</svg>

