<svg width="51" height="50" viewBox="0 0 51 50" fill="none" xmlns="http://www.w3.org/2000/svg">
<rect width="50" height="50" transform="translate(0.399902)" fill="#25D366"/>
<path d="M25.4029 13H25.3969C18.7804 13 13.3999 18.382 13.3999 25C13.3999 27.625 14.2459 30.058 15.6844 32.0335L14.1889 36.4915L18.8014 35.017C20.6989 36.274 22.9624 37 25.4029 37C32.0194 37 37.3999 31.6165 37.3999 25C37.3999 18.3835 32.0194 13 25.4029 13ZM32.3854 29.9455C32.0959 30.763 30.9469 31.441 30.0304 31.639C29.4034 31.7725 28.5844 31.879 25.8274 30.736C22.3009 29.275 20.0299 25.6915 19.8529 25.459C19.6834 25.2265 18.4279 23.5615 18.4279 21.8395C18.4279 20.1175 19.3024 19.279 19.6549 18.919C19.9444 18.6235 20.4229 18.4885 20.8819 18.4885C21.0304 18.4885 21.1639 18.496 21.2839 18.502C21.6364 18.517 21.8134 18.538 22.0459 19.0945C22.3354 19.792 23.0404 21.514 23.1244 21.691C23.2099 21.868 23.2954 22.108 23.1754 22.3405C23.0629 22.5805 22.9639 22.687 22.7869 22.891C22.6099 23.095 22.4419 23.251 22.2649 23.47C22.1029 23.6605 21.9199 23.8645 22.1239 24.217C22.3279 24.562 23.0329 25.7125 24.0709 26.6365C25.4104 27.829 26.4964 28.21 26.8849 28.372C27.1744 28.492 27.5194 28.4635 27.7309 28.2385C27.9994 27.949 28.3309 27.469 28.6684 26.9965C28.9084 26.6575 29.2114 26.6155 29.5294 26.7355C29.8534 26.848 31.5679 27.6955 31.9204 27.871C32.2729 28.048 32.5054 28.132 32.5909 28.2805C32.6749 28.429 32.6749 29.1265 32.3854 29.9455Z" fill="white"/>
</svg>
